<?xml version="1.0" encoding="UTF-8"?>
<svg id="Layer_2" data-name="Layer 2" xmlns="http://www.w3.org/2000/svg" xmlns:xlink="http://www.w3.org/1999/xlink" viewBox="0 0 78.37 69.78">
  <defs>
    <style>
      .cls-1, .cls-2 {
        fill: #fffabc;
      }

      .cls-3 {
        fill: #ef3c3a;
      }

      .cls-2 {
        stroke: url(#radial-gradient);
        stroke-miterlimit: 10;
      }
    </style>
    <radialGradient id="radial-gradient" cx="39.18" cy="34.89" fx="39.18" fy="34.89" r="37.1" gradientUnits="userSpaceOnUse">
      <stop offset="0" stop-color="#fffabc"/>
      <stop offset=".28" stop-color="#efeaac"/>
      <stop offset=".82" stop-color="#c7c183"/>
      <stop offset="1" stop-color="#b9b374"/>
    </radialGradient>
  </defs>
  <g id="Layer_1-2" data-name="Layer 1">
    <path class="cls-2" d="m70.69,9.08C60.59-1.63,44.47.46,39.69,1.08c-11.38,1.48-19.33,7.04-23,10C5.72,18.19-.71,29.83.69,41.08c2.26,18.1,23.5,24.62,28,26,2.46.76,24.24,7.09,38-6,5.97-5.68,7.8-12.5,9-17,1.28-4.79,6.19-23.13-5-35Zm-.9,18.42c-.41,5.02-.81,10.03-1.21,15.05-.31,3.78-.63,7.61-1.91,11.18-.62,1.69-1.46,3.33-2.75,4.59-1.61,1.58-3.77,2.44-5.91,3.13-4.88,1.58-10.08,2.5-15.13,1.63-.4-.07-.84-.17-1.07-.5l.11,1.22c-10.28-.68-19.97-4.91-29.19-9.48-2.74-1.36-5.76-3.15-6.3-6.15-.3-1.69.29-3.42,1.11-4.93,1.81-3.31,4.71-5.93,7.93-7.91.09-.06.19-.11.28-.17-.58-2.26-1.09-4.55-1.65-6.81-.49-1.96-1.03-3.95-.76-5.95.32-2.36,1.79-4.52,3.7-6.16,1.91-1.65,4.24-2.84,6.62-3.87,8.13-3.54,17.11-5.46,26.13-5.59,2.38-.03,4.91.1,6.88,1.3,1.69,1.03,2.74,2.71,3.56,4.4,1.52,3.07,2.5,6.36,2.9,9.71.21.02.42.02.63.01,1.27-.08,2.52-.76,3.75-.44,1.09.28,1.86,1.31,2.16,2.39.3,1.08.21,2.23.12,3.35Z"/>
    <g>
      <path class="cls-3" d="m69.79,26.5c-.41,5.02-.81,10.03-1.21,15.05-.31,3.78-.63,7.61-1.91,11.18-.62,1.69-1.46,3.33-2.75,4.59-1.61,1.58-3.77,2.44-5.91,3.13-4.88,1.58-10.08,2.5-15.13,1.63-.4-.07-.84-.17-1.07-.5l.11,1.22c-10.28-.68-19.97-4.91-29.19-9.48-2.74-1.36-5.76-3.15-6.3-6.15-.3-1.69.29-3.42,1.11-4.93,1.81-3.31,4.71-5.93,7.93-7.91.09-.06.19-.11.28-.17-.58-2.26-1.09-4.55-1.65-6.81-.49-1.96-1.03-3.95-.76-5.95.32-2.36,1.79-4.52,3.7-6.16,1.91-1.65,4.24-2.84,6.62-3.87,8.13-3.54,17.11-5.46,26.13-5.59,2.38-.03,4.91.1,6.88,1.3,1.69,1.03,2.74,2.71,3.56,4.4,1.52,3.07,2.5,6.36,2.9,9.71.21.02.42.02.63.01,1.27-.08,2.52-.76,3.75-.44,1.09.28,1.86,1.31,2.16,2.39.3,1.08.21,2.23.12,3.35Z"/>
      <path class="cls-1" d="m67.29,26.5c-.38,4.69-.76,9.39-1.13,14.08-.32,4.02-.52,8.28-2.11,12.05-.7,1.64-1.72,3.04-3.27,3.96s-3.43,1.49-5.22,1.99c-2.03.58-4.1,1.04-6.21,1.22-1.08.09-2.16.13-3.24.1-.62-.02-1.24-.05-1.85-.13-.24-.02-.48-.06-.72-.1-.42-.12-.41-.07.03.14-1.43-1.43-4.47-.46-4.27,1.77l.11,1.22,2.5-2.5c-9.35-.67-18.17-4.37-26.5-8.44-2.61-1.28-7.43-3.05-6.38-6.77s4.72-6.8,7.98-8.78c.96-.58,1.43-1.73,1.15-2.82-.61-2.41-1.16-4.84-1.76-7.26-.52-2.09-1.04-4.22-.02-6.25,1.94-3.87,6.65-5.76,10.46-7.23,4.53-1.75,9.25-3,14.04-3.75,2.34-.36,4.71-.57,7.08-.67,2.16-.09,4.6-.29,6.65.5s3.09,3.01,3.94,4.92c1.04,2.34,1.76,4.9,2.08,7.44.18,1.4,1,2.42,2.5,2.5.87.04,1.72-.11,2.56-.3.29-.06.89-.36,1.19-.21.89.44.47,2.6.42,3.32-.11,1.35,1.22,2.5,2.5,2.5,1.44,0,2.39-1.15,2.5-2.5.2-2.49-.01-5.18-1.99-6.96-.99-.89-2.26-1.38-3.61-1.36-1.21.02-2.35.58-3.56.51l2.5,2.5c-.36-2.87-.99-5.65-2.07-8.34-.97-2.4-2.09-4.93-4.04-6.71-4.21-3.85-10.91-3.03-16.13-2.46-5.67.61-11.25,1.83-16.61,3.78s-10.78,4.17-14.02,8.85c-1.83,2.64-2.24,5.63-1.73,8.75.54,3.28,1.49,6.55,2.31,9.77l1.15-2.82c-6.02,3.66-14.59,12.31-8.6,19.52,2.36,2.84,6.22,4.31,9.47,5.85,3.97,1.87,8.02,3.62,12.19,5.01,4.66,1.55,9.47,2.58,14.37,2.93,1.26.09,2.62-1.22,2.5-2.5l-.11-1.22-4.27,1.77c1.42,1.41,3.72,1.44,5.6,1.54,2.01.1,4-.07,5.99-.35,3.76-.54,7.77-1.54,11.14-3.34,7.25-3.85,7.78-13.14,8.36-20.37.38-4.77.76-9.55,1.15-14.32.11-1.35-1.23-2.5-2.5-2.5-1.44,0-2.39,1.15-2.5,2.5Z"/>
    </g>
    <path class="cls-3" d="m16.48,43.24c-.35.08-.7.15-1.05.21-.16.03-.31.05-.47.08-.09.01-.63.08-.16.03-.32.04-.63.07-.95.1-.2.02-.4.03-.59.04-.08,0-.16.01-.24.01-.22,0-.16.02.18.03l1.1.64c.62.65.5.99.36.41-.05-.18-.09-.36-.13-.55-.08-.37-.16-.73-.23-1.1-.03-.15-.05-.3-.08-.45,0,0-.1-.66-.06-.34s-.03-.28-.04-.34c-.02-.19-.04-.37-.05-.56-.05-.71-.07-1.42-.04-2.13.02-.37.05-.74.09-1.11-.04.37-.02.12.02-.1.03-.18.07-.36.11-.54.07-.32.16-.65.25-.96.05-.18.11-.35.18-.53.02-.07.27-.62.11-.3s.13-.21.13-.21c.06.05-.51.41-.56.42-.12.04-.68.07-.25.08.14,0,.28,0,.43,0,.8,0,1.6.01,2.4.02.36,0,.72,0,1.08,0,.42,0,.13.01-.11-.04.55.12-.76-.43-.88-.71l-.34-1.26c.08-.85.44-1.4,1.06-1.62.17-.07.2-.08.07-.04-.18.01-.38.09-.55.13-.4.09-.8.15-1.2.22.27-.05.12-.01-.06,0-.2.02-.41.04-.61.06-.41.03-.81.05-1.22.06-1.36.05-2.6.67-3.02,2.06-.24.77-.23,1.69-.32,2.5-.14,1.3,1.25,2.56,2.5,2.5,1.48-.07,2.35-1.1,2.5-2.5.03-.3.07-.6.1-.9.02-.15.03-.3.05-.45-.01.24-.08.46-.19.67l-.9.9c-.8.49-1.14.2-.6.22.16,0,.33-.01.49-.02.33-.02.65-.04.97-.08.79-.08,1.58-.19,2.36-.34,1.75-.33,3.56-1.19,3.59-3.26s-1.79-3.03-3.56-3.11c-1.24-.05-2.48-.02-3.72-.03-1.68,0-3.17.66-3.95,2.21-.57,1.13-.96,2.36-1.17,3.61-.45,2.69-.29,5.35.25,8.01.15.75.28,1.59.65,2.27.59,1.09,1.71,1.58,2.92,1.52,1.56-.08,3.14-.31,4.67-.65,1.28-.28,2.15-1.84,1.75-3.08-.44-1.35-1.7-2.04-3.08-1.75h0Z"/>
    <path class="cls-3" d="m45.63,12.63c2.99-.24,5.84-.38,8.57,1.04,1.25.65,2.45,1.42,3.64,2.17,1.34.85,2.81,1.65,4.05,2.64.15.12.41.32.5.47.07.11-.01-.33-.02-.02-.02.52-.45,1.07-.7,1.49-.79,1.32-1.57,2.65-1.95,4.17s-.41,3.08.04,4.55,1.37,2.63,2.16,3.91c1.4,2.25,2.36,4.87,1.97,7.55-.35,2.45-1.52,4.7-2.56,6.91s-2.19,4.69-2.58,7.24c-.11.7-.2,1.42-.21,2.13-.01.64.18,1.41.03,2.03-.19.82-1.06,1.27-1.73,1.67-.76.45-2.44,1.66-3.36,1.17-.42-.22-.78-.84-1.07-1.21-.47-.6-.94-1.14-1.53-1.63-2.51-2.06-5.78-2.75-8.97-2.64s-3.23,5.1,0,5c2.07-.06,4.14.05,6.18.45s4.15,1.1,6.27.96c1.91-.13,3.87-.81,5.19-2.25,1.4-1.53,1.68-3.52,2.01-5.49.74-4.48,1.21-9.01,1.35-13.55.14-4.43-.3-8.91.45-13.3.44-2.55.86-5.1.81-7.7-.04-2.25-.73-4.54-3.13-5.24s-4.4,2.54-2.43,4.18,3.84,3.19,5.76,4.8c.26.22.67.71.99.85,0-.5-.06-.6-.18-.28-.13.23-.26.46-.41.68-.5.76-1.16,1.38-1.85,1.96-1.73,1.46-3.01,3.58-1.79,5.83.57,1.03,1.52,1.73,2.6,2.15.48.19.96.29,1.47.41.11.03.91.38.68.13l-.64-1.1c.21.53-.34,1.8-.55,2.37-.35.93-.86,1.82-1.43,2.62-1.15,1.6-2.7,2.79-4.46,3.65-1.21.59-1.54,2.32-.9,3.42.72,1.24,2.2,1.49,3.42.9,3.1-1.51,5.72-4.09,7.28-7.16.81-1.6,1.39-3.3,1.62-5.07.32-2.4-1.08-3.92-3.31-4.49-.36-.09-.78-.22-1.16-.25-.19.03-.33-.02-.4-.15.32.3.37.69.16,1.17.13.02,1.18-1.07,1.38-1.25,1.43-1.29,2.89-3.13,3.29-5.05.48-2.32-1.04-3.83-2.66-5.18-1.79-1.49-3.58-2.99-5.37-4.48l-2.43,4.18c-.39-.1-.6-.3-.65-.6.05.32.08.39.08.23-.11.51.04,1.23.03,1.76-.02,1.08-.1,2.16-.26,3.23-.37,2.47-.87,4.9-.96,7.4-.19,4.9.07,9.77-.35,14.66-.2,2.33-.48,4.65-.87,6.95-.25,1.49-.14,3.43-1.83,3.94-1.82.55-3.93-.36-5.72-.7-2.4-.46-4.84-.66-7.28-.59v5c1.32-.04,2.62.03,3.88.45,1.36.45,2.2,1.26,3.08,2.36.98,1.23,2.11,2.28,3.7,2.62,1.83.4,3.6-.18,5.24-.97,2.86-1.38,5.58-3.39,5.76-6.82.07-1.33-.1-2.59.21-3.9s.82-2.67,1.4-3.94c1.17-2.58,2.55-5.12,3.27-7.88.86-3.28.57-6.62-.72-9.74-.65-1.56-1.52-2.93-2.43-4.36-.77-1.2-1.05-2.18-.64-3.57s1.43-2.56,2.03-3.89c.8-1.77.96-3.75-.15-5.44-1.06-1.6-2.95-2.59-4.52-3.61s-3.11-2.03-4.73-2.93c-1.71-.95-3.52-1.7-5.45-1.99-2.07-.31-4.12-.21-6.2-.04-1.35.11-2.5,1.07-2.5,2.5,0,1.27,1.15,2.61,2.5,2.5h0Z"/>
    <path class="cls-3" d="m39.71,54.7c.16,1.2-.78,2.17-1.54,3.03-.91,1.02-1.92,1.95-3.06,2.72-1.04.7-2.27,1.53-3.54,1.68-1.17.14-1.71-.86-2.43-1.63-.92-.99-2.09-1.65-3.09-2.55-1.08-.96-1.7-2.34-2.71-3.38s-2.31-1.88-3.69-2.44c-.94-.38-2.39-.46-3.1-1.19l-1.77,4.27c2.18-.11,4.18.52,6.19,1.31,1.69.66,3.39,1.35,4.97,2.25,1.32.76,2.56,1.67,3.31,3.03,1.03,1.85,1.94,3.13,4.19,3.49,2.04.32,4.28-.18,5.39-2.09s.54-4.16-.81-5.66c-2.79-3.11-7.79-1.72-11.21-3.68-2.8-1.6-5.32,2.72-2.52,4.32,1.57.9,3.29,1.45,5.07,1.75,1.43.24,3.1.18,4.48.7.02,0,.83.35.58.47s.3-.73.33-.65c-.02-.05-.19-.02-.31-.03.05,0-.55-.12-.26.08-.08-.06-.26-.53-.29-.59-.37-.73-.78-1.39-1.29-2.04-1.84-2.32-4.5-3.73-7.17-4.88-3.38-1.45-6.89-2.96-10.64-2.77-2.15.11-3.31,2.66-1.77,4.27,1.28,1.34,2.9,1.61,4.57,2.2,1.36.48,2.29,1.4,3.1,2.56,1.14,1.63,2.38,2.65,3.92,3.86,1.36,1.06,2.21,2.59,3.79,3.39,3.59,1.82,7.64-.43,10.5-2.63,2.62-2.02,6.3-5.48,5.82-9.14-.18-1.34-1.02-2.5-2.5-2.5-1.21,0-2.68,1.15-2.5,2.5h0Z"/>
  </g>
</svg>