<?xml version="1.0" encoding="UTF-8"?>
<svg id="Layer_2" data-name="Layer 2" xmlns="http://www.w3.org/2000/svg" xmlns:xlink="http://www.w3.org/1999/xlink" viewBox="0 0 71.95 95.49">
  <defs>
    <style>
      .cls-1 {
        stroke: #231f20;
      }

      .cls-1, .cls-2, .cls-3 {
        stroke-miterlimit: 10;
      }

      .cls-1, .cls-3 {
        fill: none;
      }

      .cls-4 {
        fill: #b14629;
      }

      .cls-5 {
        fill: #fff;
      }

      .cls-6 {
        fill: #b13b28;
      }

      .cls-7 {
        fill: #f2683b;
      }

      .cls-8 {
        fill: #b1b3b6;
      }

      .cls-9 {
        fill: #d23327;
      }

      .cls-2 {
        fill: url(#radial-gradient);
        stroke: #6b581b;
      }

      .cls-10 {
        fill: #f04c38;
      }

      .cls-3 {
        stroke: #b1b3b6;
      }

      .cls-11 {
        fill: #bd5236;
      }

      .cls-12 {
        fill: #ab7535;
      }

      .cls-13 {
        fill: #7f621c;
      }

      .cls-14 {
        fill: #231f20;
      }

      .cls-15 {
        fill: #9f2221;
      }

      .cls-16 {
        fill: #7e2b18;
      }
    </style>
    <radialGradient id="radial-gradient" cx="33.54" cy="51.53" fx="33.54" fy="51.53" r="23.95" gradientTransform="translate(-.1) scale(1.05 1)" gradientUnits="userSpaceOnUse">
      <stop offset="0" stop-color="#c49a6c" stop-opacity=".9"/>
      <stop offset=".17" stop-color="#b78c61" stop-opacity=".92"/>
      <stop offset=".69" stop-color="#976a46" stop-opacity=".98"/>
      <stop offset="1" stop-color="#8b5e3c"/>
    </radialGradient>
  </defs>
  <g id="Layer_1-2" data-name="Layer 1">
    <path class="cls-8" d="m69.01,38.41c.06.54.08,1.08.04,1.63s-.14,1.02-.26,1.53c-.07.3-.04.61.2.84.22.2.51.23.79.23.56,0,1.11-.01,1.67-.02.64,0,.64-1.01,0-1-.48,0-.97.01-1.45.02-.11,0-.23,0-.34,0h-.05s.05,0,.01,0c-.03,0-.03,0,0,0,.07.03.11.08.13.16.03,0-.03.08.02,0,.02-.04.03-.12.04-.17.03-.11.05-.23.08-.35.19-.95.24-1.92.13-2.88-.03-.27-.21-.5-.5-.5-.25,0-.53.23-.5.5h0Z"/>
    <path class="cls-8" d="m68.64,49.58l2.47-.13c.26-.01.51-.22.5-.5-.01-.26-.22-.51-.5-.5l-2.47.13c-.26.01-.51.22-.5.5.01.26.22.51.5.5h0Z"/>
    <path class="cls-8" d="m69.86,34.44c-.35-.28-.79-.38-1.23-.25-.4.12-.74.39-.94.76s-.28.77-.29,1.18c0,.43.07.86.08,1.3,0,.26.23.51.5.5s.51-.22.5-.5c0-.35-.06-.7-.07-1.05,0-.17,0-.33.01-.5,0,.07,0,.05,0,0,0-.03.01-.07.02-.1.02-.07.04-.14.06-.22.01-.03.05-.1,0-.01.02-.03.03-.06.05-.09s.03-.06.05-.09c.06-.11-.06.06.02-.03.02-.02.04-.05.07-.07.08-.08,0,0,0,0,0,0,.16-.1.17-.1.05-.03-.09.03,0,0,.04,0,.07-.02.11-.03.08-.02,0,.01-.03,0,0,0,.09,0,.11,0h.04s.05,0,0,0c-.06-.03.01,0,.04.01.1.02-.08-.05.01,0,.03.02.11.08.02,0,.2.16.51.21.71,0,.17-.18.22-.53,0-.71h0Z"/>
    <path class="cls-8" d="m69.65,34.97h.45c.07,0,.13-.01.19-.04.06-.02.12-.05.16-.1.05-.05.08-.1.1-.16.03-.06.05-.12.04-.19l-.02-.13c-.02-.08-.07-.16-.13-.22l-.1-.08c-.08-.05-.16-.07-.25-.07h-.45c-.07,0-.13.01-.19.04-.06.02-.12.05-.16.1-.05.05-.08.1-.1.16-.03.06-.05.12-.04.19l.02.13c.02.08.07.16.13.22l.1.08c.08.05.16.07.25.07h0Z"/>
    <path class="cls-8" d="m67.01,15.96c-.2.49-.31,1.01-.35,1.54-.02.24-.02.48,0,.72.02.26.04.55.17.78.31.55.98.45,1.52.45s1.1,0,1.65,0c.26,0,.51-.23.5-.5s-.22-.5-.5-.5c-.47,0-.95,0-1.42,0-.24,0-.47,0-.71,0-.05,0-.11,0-.16,0-.02,0-.04,0-.06,0-.06,0-.06,0,0,0h-.04s.06.02.08.04l.03.04s-.03-.04,0,.01c-.01-.04-.02-.08-.03-.12-.03-.13,0,.11,0-.05-.01-.1-.02-.21-.02-.31,0-.22,0-.45.02-.67,0-.02.02-.16,0-.07,0-.05.02-.1.02-.15.02-.1.04-.2.06-.3.05-.22.12-.43.21-.64.1-.24-.11-.56-.35-.62-.29-.07-.51.09-.62.35h0Z"/>
    <path class="cls-8" d="m32.07,4.48l2.39-.12,1.17-.06c.37-.02.75-.01,1.12-.09.73-.15,1.05-.76,1.24-1.42.21-.74.28-1.53.21-2.3-.02-.27-.21-.5-.5-.5-.25,0-.52.23-.5.5.06.63.02,1.26-.14,1.88-.06.23-.11.53-.27.72-.14.18-.4.17-.6.18-1.37.07-2.74.13-4.11.2-.64.03-.64,1.03,0,1h0Z"/>
    <path class="cls-8" d="m40.94,1.91c-1.32.27-2.68.33-4.02.2-.27-.03-.5.25-.5.5,0,.29.23.47.5.5,1.43.14,2.88.05,4.29-.23.26-.05.42-.37.35-.62-.08-.28-.35-.4-.62-.35h0Z"/>
    <path class="cls-8" d="m68.79,54.2c.47-.16.7-.58.72-1.06.01-.21-.04-.42-.08-.62,0-.04-.02-.09-.03-.13,0-.03-.01-.06-.02-.09,0,.06,0,.06,0,0,0-.04,0-.09,0-.13,0-.06,0-.06,0,0,0-.02,0-.04.02-.07,0-.02.01-.04.02-.06-.03.06-.03.08-.02.04,0-.01.04-.1.06-.1-.05.06-.05.06-.02.02.01-.01.02-.03.03-.04.02-.02.06-.08.09-.08-.06.04-.06.05-.02.02.02-.01.04-.03.06-.04.03-.02.06-.03.09-.05.05-.02.04-.02-.02,0,.02,0,.04-.02.07-.02.03-.01.07-.02.1-.03.02,0,.17-.02.06-.01.05,0,.09,0,.14,0,.11,0,.21,0,.32.02-.11-.01.07.01.09.02.05,0,.09.02.14.03.12.03.24.06.36.09.25.07.55-.08.62-.35s-.08-.54-.35-.62c-.5-.13-1.01-.24-1.53-.15-.43.07-.82.32-1.07.67-.3.41-.24.9-.14,1.36.01.06.02.11.03.17.01.06,0,.06,0-.02,0,.02,0,.04,0,.06,0,.03,0,.06,0,.09,0,.02,0,.04,0,.06.01-.08.01-.09,0-.04,0,.03-.02.07-.03.1-.01.04,0,.02.02-.05,0,.02-.02.03-.03.05-.03.04-.02.03.03-.03-.01.01-.03.03-.04.04.06-.05.08-.06.03-.03.08-.03.09-.03.04-.02-.25.08-.44.35-.35.62.08.25.35.44.62.35h0Z"/>
    <path class="cls-8" d="m69.37,54.04c0,.06,0,.13.03.19.02.06.04.12.08.17s.07.1.11.14.09.08.15.11.12.06.17.08c.02,0,.04.01.06.01.05,0,.13.02.19.02s.13,0,.19-.03c.07-.02.12-.05.17-.09.05-.04.1-.08.13-.14.04-.06.06-.12.06-.19.01-.07.01-.13,0-.2l-.05-.12c-.04-.08-.1-.13-.18-.18l-.12-.05c-.09-.02-.18-.02-.27,0-.02,0-.03.01-.05.01l.13-.02s-.04,0-.06,0l.13.02s-.04,0-.07-.02l.12.05s-.04-.02-.06-.04l.1.08s-.03-.03-.05-.05l.08.1s-.02-.04-.03-.05l.05.12s-.01-.03-.01-.05l.02.13s0,0,0-.01c0-.07-.01-.13-.04-.19-.02-.06-.05-.12-.1-.16-.05-.05-.1-.08-.16-.1-.06-.03-.12-.05-.19-.04l-.13.02c-.08.02-.16.07-.22.13l-.08.1c-.05.08-.07.16-.07.25h0Z"/>
    <path class="cls-8" d="m67.82,56.97c-.01.48-.02.96-.03,1.43s-.04.95,0,1.42c.03.3.18.55.47.67.22.09.48.09.72.11.49.05.97.1,1.46.15.26.03.51-.25.5-.5-.01-.29-.22-.47-.5-.5-.41-.04-.82-.09-1.23-.13-.11-.01-.22-.02-.32-.03-.05,0-.11-.01-.16-.02-.02,0-.04,0-.06,0-.05,0-.04,0,.01,0-.03.03-.05-.05,0,.01.09.05.13.11.12.19,0,.03,0,.03,0,0,0-.1,0-.2,0-.3,0-.84,0-1.67.03-2.51,0-.26-.24-.51-.5-.5s-.49.22-.5.5h0Z"/>
    <path class="cls-8" d="m68.44,65.69c-.68-.16-1.31.27-1.56.9-.12.29-.15.61-.16.93,0,.33-.02.69.19.97s.55.35.89.35.68,0,1.01,0c.69,0,1.38,0,2.07,0,.64,0,.64-1,0-1-1.05,0-2.09.02-3.14,0-.04,0-.09,0-.13,0,.04,0,.04,0,0,0-.06-.02-.03,0,.07.05,0,0,.04.04.03.05-.01,0,0-.06,0-.1,0-.2,0-.45.02-.61.02-.1.04-.21.08-.3.04-.08.04-.08.11-.16.04-.05.02-.02.05-.04.02-.01.1-.06.05-.04,0,0,.15-.06.07-.03h.05s-.04-.01.02,0c.26.06.54-.08.62-.35s-.09-.55-.35-.62h0Z"/>
  </g>
  <g id="Layer_2-2" data-name="Layer 2">
    <path class="cls-3" d="m65.48,91.26l-6.75.86"/>
    <path class="cls-8" d="m67.51,85.25h3.04c.26,0,.51-.23.5-.5s-.22-.5-.5-.5h-3.04c-.26,0-.51.23-.5.5s.22.5.5.5h0Z"/>
    <path class="cls-8" d="m57.68,93.16l-.23,1.12c-.03.13-.02.27.05.39.06.1.18.2.3.23.13.03.27.02.39-.05.11-.07.2-.17.23-.3l.23-1.12c.03-.13.02-.27-.05-.39-.06-.1-.18-.2-.3-.23-.13-.03-.27-.02-.39.05-.11.07-.2.17-.23.3h0Z"/>
  </g>
  <g id="Layer_4" data-name="Layer 4">
    <path class="cls-9" d="m59.33,91.53c1-.25,2.03-.4,3.06-.43.89-.02,2.08.26,2.58-.7.33-.64.47-1.76-.1-2.3-.38-.35-.88-.29-1.34-.24-.56.06-1.12.13-1.68.19s-1.08.12-1.62.18c-.51.06-1.05.07-1.46.41-.76.62-.67,1.81.11,2.36.9.65,1.82.02,2.67-.36.47-.21.96-.35,1.46-.45.45-.08,1.02-.01,1.4-.3.41-.31.42-.98-.06-1.24s-1.14-.27-1.65-.24c-1.18.06-2.36.36-3.52.57-.42.08-.49.72-.12.91.61.32,1.26.56,1.93.71l.13-.98-.75.02h-.4c-.1.01-.26-.02-.35.02-.12.05-.07-.03-.02.04-.06-.07-.07-.22-.1-.31-.08-.26-.16-.52-.24-.79-.13-.43-.89-.52-.96,0-.11.73-.16,1.5.17,2.19.37.78,1.22,1.08,2.04.92.43-.09.84-.3,1.22-.52.34-.2.73-.43.94-.78.47-.76-.23-1.84-1.12-1.41-.58.28-.07,1.14.5.86-.1.05-.18.05-.23-.02,0,0,.01.01.02.02.05-.03-.11.12-.12.13-.17.15-.39.27-.59.39-.37.21-.83.46-1.27.37-.79-.16-.69-1.3-.6-1.88h-.96c.1.34.2.68.31,1.01.1.29.23.55.52.69.27.13.6.08.89.08.37,0,.73-.02,1.1-.03.55-.01.7-.86.13-.98s-1.16-.33-1.7-.61l-.12.91c.79-.15,1.59-.3,2.39-.44.36-.06.72-.1,1.08-.11.17,0,.35,0,.52.03.09.01.19.03.28.06l.1.03c.15.05.14.04-.03-.05l-.07-.25s.1-.1.1-.12c0,0-.13.02-.14.02-.16.02-.33.03-.49.05-.31.04-.61.1-.91.17-.61.16-1.19.41-1.75.7-.37.19-.94.46-1.23,0-.1-.16-.09-.37.01-.53.14-.21.45-.22.68-.24,1.3-.15,2.6-.33,3.9-.44.17-.01.26-.05.32.1.07.16,0,.42-.02.59s-.05.38-.17.51c-.15.15-.45.1-.64.09-1.46-.05-2.92.1-4.33.46-.62.16-.36,1.12.27.96h0Z"/>
    <path class="cls-9" d="m64.14,92.29l-.04.94c0,.16-.01.31-.02.47,0,.04-.05.3.02.23-.06.05-.6,0-.74,0-.32,0-.64,0-.96,0-.64,0-1.27,0-1.91,0-.32,0-.64,0-.96,0-.16,0-.56.06-.67-.02l.18.18c0,.13.03.14.05.03.02-.03.03-.06.05-.09.04-.08.09-.14.15-.2.13-.14.3-.24.47-.33.35-.17.76-.24,1.14-.26,1.14-.05,2.23.15,3.31-.31.33-.14.33-.72,0-.86-.48-.21-.96-.21-1.46-.05-.44.14-.85.38-1.29.5-.49.14-1.02.01-1.51.19-.51.19-.88.59-.91,1.14-.02.27.24.49.5.5.7.02,1.4.03,2.1.04.34,0,.68,0,1.02,0s.69.03,1.02-.04c.55-.11,1-.72.68-1.27s-1.27-.38-1.82-.38c-.64,0-.64,1,0,1,.21,0,.41,0,.62,0,.09,0,.19,0,.28,0h.11c.11,0,.12,0,.02-.01l-.13-.22c-.06-.15.16-.06-.05-.09-.16-.02-.34,0-.5,0-.38,0-.76,0-1.14,0-.74,0-1.48-.02-2.22-.04l.5.5c.01-.25.53-.25.69-.26.4-.01.79-.04,1.17-.17.32-.11.63-.26.95-.38.25-.1.59-.23.86-.11v-.86c-.95.41-2.06.09-3.06.2-.87.09-1.77.39-2.3,1.14-.28.39-.47.98-.05,1.34.39.34,1.12.2,1.59.2,1.19,0,2.39,0,3.58,0,.6,0,1.32.04,1.54-.67.09-.29.07-.62.08-.92l.04-1.06c.02-.64-.98-.64-1,0h0Z"/>
    <path class="cls-9" d="m60.74,90.49c.47-.06.92-.18,1.37-.33.38-.13.79-.28,1.18-.29.07,0,.15,0,.22,0,.12,0,.07,0,.17.02.15.03.31.08.4.12.16.08.2.11.31.23.06.06-.05-.09.03.04.02.03.04.06.05.09.01.02.03.07.01.02.02.05.03.1.04.15.06.26.37.42.62.35.27-.08.41-.35.35-.62-.19-.89-1.08-1.33-1.92-1.4-.99-.08-1.86.51-2.82.62-.27.03-.5.21-.5.5,0,.25.23.53.5.5h0Z"/>
    <path class="cls-9" d="m59.19,93.46c.64,0,.64-1,0-1s-.64,1,0,1h0Z"/>
  </g>
  <g id="Layer_3" data-name="Layer 3">
    <g>
      <g>
        <path class="cls-9" d="m64.02,84.98v-.62c.24-.44.49-.89.73-1.33.09-.15.18-.3.32-.4.17-.12.39-.14.61-.15.24-.01.49-.02.73-.03v-.19c-.24-.24-.17-.62-.12-.95.06-.33.01-.76-.31-.86-.13-.04-.26-.01-.39.02-2.76.6-5.61.82-8.43.66l-.11.03c-.07-.25-.14-.5-.22-.75-.33-1.04-.78-2.02-1.32-2.95l.16-.09c1.06-.41,2.2-.62,3.33-.61.63,0,1.27.07,1.88-.08.27-.06.56-.19.67-.45.07-.17.05-.37.02-.56-.01-.12-.03-.25-.05-.37,1.35-.09,2.71-.01,4.04.23.32.06.64.13.91.31.27.17.48.48.46.8l.09.55c1.42-.22,2.87-.27,4.31-.18h.12v10.98h-6v-.06c-2.23-.13-4.49-.05-6.72.21l-.73.07c-.04-.5-.09-.99-.13-1.48-.05-.57-.1-1.15-.16-1.72l.24-.03h6.07Z"/>
        <path class="cls-9" d="m66.81,72.21c1.44,0,2.89.18,4.29.55h.35v4.25h-.12c-1.44-.09-2.89-.04-4.31.18l-.09-.55c.02-.32-.19-.63-.46-.8-.27-.18-.59-.25-.91-.31-1.33-.24-2.69-.32-4.04-.23-.07-.64-.16-1.27-.24-1.9,0-.07-.02-.14-.06-.18-.05-.05-.13-.05-.2-.05h-8.47l-.3.34c-1.12-1.02-2.39-1.89-3.73-2.6l.29-.54c-.14-.37-.08-.81.16-1.12l.29-.23c.11.09.27.07.4.04,3.27-.66,6.64-.32,9.96-.38.55-.01,1.19-.1,1.5-.5,1.53.02,3.07.05,4.6.08v.4c-.31,0-.46.36-.52.65-.12.52-.24,1.03-.36,1.55-.06.26-.11.55.03.77.18.27.56.31.88.31.35,0,.7.01,1.05-.01v.28Z"/>
        <path class="cls-9" d="m66.8,71.93c-.35.02-.7.01-1.05.01-.32,0-.7-.04-.88-.31-.14-.22-.09-.51-.03-.77.12-.52.24-1.03.36-1.55.06-.29.21-.65.51-.65v-.4c-1.52-.03-3.06-.06-4.59-.08.06-.06.11-.14.14-.23.2-.54-.17-1.26.23-1.67v-.33c.18,0,.37,0,.55-.01.17-.01.35-.02.52-.07v.02c2.74-.18,5.49-.06,8.2.35h.69v6.52h-.35c-1.4-.37-2.85-.55-4.29-.55v-.28Z"/>
        <path class="cls-9" d="m65.36,60.3c-2.76.13-5.53.26-8.29.38-.36.02-.72.04-1.08.05-.62.03-1.25.06-1.87.09l-.26-.75c1.83-.61,3.55-1.36,5.12-2.24l3.22,1.08c1.08-1.68,1.89-3.58,2.43-5.61.02-.02.04-.05.06-.07.26-.31.51-.63.76-.96v-3.95c.07-1.1.09-2.23.03-3.36l.68-.03h5.29v21.31h-.69c-2.71-.41-5.46-.53-8.2-.35v-.02c.1-.02.19-.06.27-.11.58-.35.48-1.21.3-1.87,1.04-.12,2.08-.29,3.1-.52-.07-.02-.13-.04-.18-.09-.07-.07-.1-.18-.12-.29-.19-.89-.37-1.79-.57-2.69Z"/>
        <path class="cls-9" d="m71.45,38.11v6.82h-5.29l-.68.03c0-.23-.02-.47-.03-.7v-.27h-.02c-.14-1.99-.47-4.01-.99-6l.48-.12c2.02-.12,4.06-.04,6.07.24h.46Z"/>
        <path class="cls-9" d="m64.62,26.78c.12-.88.25-1.76.37-2.64.02-.14.04-.29.13-.39.07-.08.15-.13.24-.16.13-.03.27-.04.39-.03,1.57,0,3.14,0,4.7,0v3.42h-.39c.22,1.25.32,2.28.39,3,.12,1.26.18,2.6.16,4h.84v4.12h-.46c-2.01-.28-4.05-.36-6.07-.24l-.48.12c-.34-1.35-.77-2.69-1.28-4-.95-2.48-2.2-4.85-3.71-7-.07-.1-.14-.2-.21-.29l.17-.12c1.49-.04,2.99-.09,4.49-.13.15-.01.32-.01.46.06.12.06.2.15.26.27Z"/>
        <path class="cls-9" d="m65.37,21.09h-2.11c-.18,0-.37,0-.53-.09-.16-.1-.25-.32-.14-.47l-.26-.34v-.67c-.99.02-1.98,0-2.97-.03v-.21c.12-1.2.16-2.4.12-3.59-.02-1.09-.1-2.18-.24-3.26v-.36c.85-.03,1.7-.06,2.56-.1v.23c-.04,1.18-.08,2.35-.13,3.52,0,.08,0,.16.03.22.08.13.25.13.39.13,2.48-.14,4.97-.06,7.44.22h.92v7.28c-1.56,0-3.13,0-4.7,0-.12-.01-.26,0-.39.03v-.2s-.08-.01-.12-.01l.02-.38c.12-.4.15-.82.11-1.24v-.67Z"/>
        <path class="cls-9" d="m64.23,11.89v-.04c-.2-.01-.39-.06-.49-.23-.06-.11-.06-.24-.07-.36,0-.74.01-1.48.05-2.21v-.23c.85.01,1.7,0,2.55,0l.14-.58c.11.03.24.03.35.03,1.04,0,2.07,0,3.11,0h.58v8.03h-.92c-2.47-.28-4.96-.36-7.44-.22-.14,0-.31,0-.39-.13-.04-.06-.03-.14-.03-.22.05-1.17.09-2.34.14-3.52v-.23c.36-.01.74-.03,1.11-.04.43-.01.88-.03,1.31-.04Z"/>
        <path class="cls-9" d="m65.91,5.11h-2.57l-.27-.1c-.23.29-.69.36-1.09.39-1.15.07-2.31.08-3.47.04h-.06V1.99h12v6.27h-.58c-1.04,0-2.07,0-3.11,0-.11,0-.24,0-.35-.03-.12-.03-.22-.09-.29-.18-.08-.11-.08-.25-.09-.39-.04-.85-.09-1.71-.12-2.56Z"/>
        <path class="cls-9" d="m56.52,9.66c-.89.08-1.78.1-2.67.07-.16,0-.35-.03-.4-.18-.03-.06-.02-.12-.02-.19.06-.7.11-1.41.17-2.11.18-.03.37-.07.55-.11.12-.03.24-.06.33-.15.1-.12.1-.29.1-.44,0-.52-.01-1.03-.02-1.55l.03-.05c1.3.69,2.59,1.5,3.86,2.45v-1.96h.06c1.16.04,2.32.03,3.47-.04.4-.03.86-.1,1.09-.39l.27.1h2.57c.03.85.08,1.71.12,2.56.01.14.01.28.09.39.07.09.17.15.29.18l-.14.58c-.85,0-1.7.01-2.55,0v.23c-.04.73-.05,1.47-.05,2.21.01.12.01.25.07.36.1.17.29.22.49.23v.04c-.43,0-.88.03-1.31.04-.37,0-.75.03-1.12.04-.86.04-1.71.07-2.57.1-.84.03-1.67.06-2.51.09-.2.01-.44-.01-.52-.19-.02-.04-.03-.08-.03-.12,0-.07.02-.14.04-.2.12-.49.24-.97.36-1.45l-.05-.54Z"/>
        <path class="cls-9" d="m66.4,82.26v.19c-.23,0-.48.02-.72.03-.22.01-.44.03-.61.15-.14.1-.23.25-.32.4-.24.44-.49.89-.73,1.33v.62h-6.07l-.24.03c-.14-1.3-.33-2.59-.66-3.85l.11-.03c2.82.16,5.67-.06,8.43-.66.13-.03.26-.06.39-.02.32.1.37.53.31.86-.05.33-.12.71.11.95Z"/>
        <path class="cls-9" d="m59.41,63.15h-.1c-1.08.17-2.18.21-3.27.11.01-.75-.01-1.49-.04-2.24v-.29c.35-.01.71-.03,1.07-.05,2.76-.12,5.53-.25,8.29-.38.2.9.38,1.8.57,2.69.02.11.05.22.12.29.05.05.11.07.18.09-1.02.23-2.06.4-3.1.52-1.03.12-2.07.19-3.11.2-.16,0-.33-.01-.45-.11-.11-.09-.15-.24-.17-.38-.02-.15-.01-.3.01-.45Z"/>
        <path class="cls-14" d="m65.48,44.96c.06,1.13.04,2.26-.03,3.36v-4.06c.01.23.03.47.03.7Z"/>
        <path class="cls-5" d="m65.45,48.32v3.95c-.25.33-.5.65-.76.96-.02.02-.04.05-.06.07.43-1.59.7-3.26.82-4.98Z"/>
        <path class="cls-14" d="m65.45,44.26v4.06c-.12,1.72-.39,3.39-.82,4.98-1.52,1.78-3.44,3.3-5.65,4.53l-41.53-13.84h47.98c.01.09.02.18.02.27Z"/>
        <path class="cls-5" d="m65.45,43.99v.27c0-.09-.01-.18-.02-.27h.02Z"/>
        <path class="cls-14" d="m65.43,43.99H17.45l-7-2.33v-7.67h52.71c.51,1.31.94,2.65,1.28,4,.52,1.99.85,4.01.99,6Z"/>
        <path class="cls-9" d="m52.25,15.69h7.23c.04,1.19,0,2.39-.11,3.59v.21c.98.03,1.97.05,2.96.03v.67l.26.34c-.11.15-.02.37.14.47.16.09.35.09.53.09h2.11v.67c.04.42.01.84-.11,1.24l-.02.38c-2.66-.17-5.32-.04-7.96.38l-.27.19c-3.91-4.29-8.45-6.76-12.08-8.17l-.11-.98c2.35-.27,4.71-.33,7.08-.2.11,0,.23.02.3.1.06.08.06.19.06.29,0,.23-.01.47-.01.7Z"/>
        <path class="cls-9" d="m65.37,23.39v.2c-.1.03-.18.08-.25.16-.09.1-.11.25-.13.39-.12.88-.25,1.76-.37,2.64-.06-.12-.14-.21-.26-.27-.14-.07-.31-.07-.46-.06-1.5.04-3,.09-4.49.13l-.17.12c-.26-.36-.52-.71-.79-1.05-.47-.6-.95-1.16-1.44-1.7l.27-.19c2.64-.42,5.3-.55,7.96-.38.04,0,.09.01.13.01Z"/>
        <path class="cls-9" d="m49.26,69.02l-.29.23c-.24.31-.3.75-.16,1.12l-.29.54c-1.4-.75-2.89-1.32-4.42-1.7-2.01-.5-4.08-.7-6.15-.64v-.81c-.01-.62-.01-1.24-.01-1.86,0-.14,0-.29-.08-.41-.1-.17-.29-.21-.49-.21v-.26c1.88.07,3.74.09,5.61.04l.39-.27c.08.06.2.05.3.03,3.86-.7,7.79-.99,11.72-.86.2.01.43,0,.55-.16.1-.11.1-.27.1-.41v-.13c1.09.1,2.19.06,3.27-.12h.1c-.02.16-.03.31-.01.46.02.14.06.29.17.38.12.1.29.11.45.11,1.04-.01,2.08-.08,3.11-.2.18.66.28,1.52-.3,1.87-.08.05-.17.09-.27.11-.17.05-.35.06-.52.07-.18.01-.37.01-.55.01v.33c-.4.41-.03,1.13-.23,1.67-.03.09-.08.17-.14.23-.31.4-.95.49-1.5.5-3.32.06-6.69-.28-9.96.38-.13.03-.29.05-.4-.04Z"/>
        <path class="cls-14" d="m63.16,33.99H10.45v7.67l-8-2.67h-.09c-.02-.09-.04-.2-.05-.31,1.87-7.99,7.49-16.08,15.14-20.69,9.19-5.55,18.51-4.39,21-4,.8.12,3.29.55,6.48,1.79,3.63,1.41,8.17,3.88,12.08,8.17.49.54.97,1.1,1.44,1.7.27.34.53.69.79,1.05.07.09.14.19.21.29,1.51,2.15,2.76,4.52,3.71,7Z"/>
        <path class="cls-14" d="m64.63,53.3c-.54,2.03-1.35,3.93-2.43,5.61l-3.22-1.08c2.21-1.23,4.13-2.75,5.65-4.53Z"/>
        <path class="cls-9" d="m61.52,75.3c.02.12.04.25.05.37.03.19.05.39-.02.56-.11.26-.4.39-.67.45-.61.15-1.25.08-1.88.08-1.13-.01-2.27.2-3.33.61l-.16.09c-.86-1.48-1.97-2.81-3.26-3.95l.3-.34h8.47c.07,0,.15,0,.2.05.04.04.06.11.06.18.08.63.17,1.26.24,1.9Z"/>
        <path class="cls-9" d="m33.23,11.69v-.24c2.53-.06,5.08-.07,7.62-.03v1.87h.11c2.59.26,5.24-.22,7.57-1.36h.09c0,.08.03.16.11.21.07.04.15.04.23.05,2.2.09,4.42,0,6.61-.28l.6-.06s.01.08.03.12c.08.18.32.2.52.19.84-.03,1.67-.06,2.51-.09v.36c.15,1.08.23,2.17.25,3.26h-7.23c0-.23.01-.47.01-.7,0-.1,0-.21-.06-.29-.07-.08-.19-.09-.3-.1-2.37-.13-4.73-.07-7.08.2l.11.98c-3.19-1.24-5.68-1.67-6.48-1.79-2.49-.39-11.81-1.55-21,4-7.65,4.61-13.27,12.7-15.14,20.69-.37-2.81-.24-5.8.33-8.82.71-3.76,2.1-7.57,4.05-11.12.94-1.72,2.01-3.38,3.2-4.95l.24.18c.99-.28,2.03-.42,3.06-.42v.34c0,.62,0,1.24,0,1.86.13-.05.28-.06.42-.06h5.44v-.23c-.03-.88-.05-1.76-.08-2.65,1.96-.13,3.94-.11,5.9.06l.02-.23c-.26-.28-.09-.77.22-.98.32-.21.72-.22,1.1-.22,1.99-.02,3.97-.04,5.95-.05.34-.01.7,0,.97.19.04.03.08.07.11.11Z"/>
        <path class="cls-14" d="m17.45,43.99l41.53,13.84c-1.57.88-3.29,1.63-5.12,2.24-6.08,2.03-13.39,2.59-20.57,1.73-4.6-.54-9.14-1.67-13.28-3.37-3.57-1.45-6.83-3.32-9.56-5.6v-8.84h7Z"/>
        <path class="cls-9" d="m49.07,9.85h-.01c-1.97-.14-3.93-.28-5.9-.41-.07,0-.14-.02-.18-.07-.03-.04-.03-.09-.03-.14.01-1.25.03-2.51.04-3.76v-.34c1-.01,2-.02,3-.02-.07.24-.14.47-.21.7-.16.54-.33,1.09-.5,1.64,1.21.02,2.42.03,3.63.05,1.56.02,3.15.04,4.69-.25-.06.7-.11,1.41-.17,2.11,0,.07-.01.13.02.19.05.15.24.18.4.18.89.03,1.78.01,2.67-.07l.05.54c-.12.48-.24.96-.36,1.45-.02.06-.04.13-.04.2l-.6.06c-2.19.27-4.41.37-6.61.28-.08,0-.16,0-.23-.05-.08-.05-.11-.13-.11-.22-.02-.12.01-.26.05-.37.19-.55.33-1.12.4-1.7Z"/>
        <path class="cls-9" d="m43.37,64.79l-.39.27c-1.87.05-3.73.03-5.6-.04v.26c-.12,0-.24,0-.35.03-4.04.69-8.15,1.03-12.26,1.03v-.15c-.01-.52-.01-1.04-.02-1.57,0-.07.01-.15.06-.2.04-.04.1-.05.16-.05,1.12-.09,2.24-.19,3.35-.28,1.25-.1,5.56.56,4.9-1.74l.07-.55c7.18.86,14.49.3,20.57-1.73l.26.75c.62-.03,1.25-.06,1.87-.09v.29c.04.75.06,1.49.05,2.24v.13c0,.14,0,.3-.1.41-.12.16-.35.17-.55.16-3.93-.13-7.86.16-11.72.86-.1.02-.22.03-.3-.03Z"/>
        <path class="cls-9" d="m45.99,5.11c-1,0-2,.01-3,.02h-.61c-.13,0-.27-.01-.36-.11-.06-.08-.06-.19-.06-.3.05-1.26.03-2.6-.61-3.68v-.06c2.57.29,7.86,1.1,13.24,3.97l-.03.05c.01.52.02,1.03.02,1.55,0,.15,0,.32-.1.44-.09.09-.21.12-.33.15-.18.04-.37.08-.55.11-1.54.29-3.13.27-4.69.25-1.21-.02-2.42-.03-3.63-.05.17-.55.34-1.1.5-1.64.07-.23.14-.46.21-.7Z"/>
        <path class="cls-9" d="m32.52,6.04V1.63l-.08-.84c3.72-.35,6.72-.02,8.19.12.21.02.45.04.73.07v.06c.63,1.08.65,2.42.6,3.68,0,.11,0,.22.06.3.09.1.23.11.36.11h.61v.34c-.01,1.25-.03,2.51-.04,3.76,0,.05,0,.1.03.14.04.05.11.06.18.07,1.97.13,3.93.27,5.9.41h.01c-.07.58-.21,1.15-.4,1.7-.04.11-.07.25-.05.37h-.09c-2.33,1.15-4.98,1.63-7.57,1.37h-.11v-3.23l-.03-.33c-1.34.12-2.68.15-4.01.1-.09,0-.19-.01-.25-.07-.07-.06-.08-.17-.09-.27-.02-.29-.03-.6-.03-.89h-4.44v-.21c.14,0,.28-.02.38-.11.13-.12.14-.33.14-.52v-1.72Z"/>
        <path class="cls-9" d="m33.23,11.45v.24s-.07-.08-.11-.11c-.27-.19-.63-.2-.97-.19-1.98,0-3.96.03-5.95.05-.38,0-.78.01-1.1.22-.31.21-.48.7-.22.98l-.02.23c-1.96-.17-3.94-.19-5.9-.06l-.06-2.19h.01c1.99.06,3.99,0,5.97-.18.17-.02.35-.04.45-.17.09-.11.09-.25.1-.39,0-.43.01-.85.01-1.28l.02-.49c2.14.09,4.28.19,6.42.28h.12v.21h4.44c0,.29.01.6.03.89.01.1.02.21.09.27.06.06.16.07.25.07,1.33.05,2.67.02,4.01-.1l.03.33v1.36c-2.54-.04-5.09-.03-7.62.03Z"/>
        <path class="cls-9" d="m37.94,67.76v.81c-3.8.1-7.62,1.07-11.14,2.57-1.33.57-2.62,1.21-3.79,2.04-1.35.96-2.49,2.16-3.46,3.5-.22-1.12-.32-2.26-.32-3.4.01-1.23.15-2.46.42-3.66.2-.89.47-1.76.81-2.6.09-.22.19-.45.38-.59.25-.18.58-.17.89-.16,1.01.04,2.03.07,3.04.07,4.11,0,8.22-.34,12.26-1.03.11-.02.23-.03.34-.03.2,0,.39.04.49.21.08.12.08.27.08.41v1.86Z"/>
        <path class="cls-9" d="m15.64,60.08c-.15-.29.04-.76.38-.91.42-.19.9-.05,1.35.05.72.17,1.47.25,2.22.23l.42-1.02c4.14,1.7,8.68,2.83,13.28,3.37l-.07.55c.66,2.3-3.65,1.64-4.9,1.74-1.11.09-2.23.19-3.35.28-.06,0-.12,0-.16.05-.05.05-.06.13-.06.2.01.53.01,1.05.02,1.57v.15c-1.01,0-2.03-.03-3.04-.07-.31-.01-.64-.02-.89.16l-.05-.08c-.14-.16-.29-.31-.46-.45-1.12-.94-2.76-.82-4.21-.65l-.22-.07c.07-.14.08-.33.09-.49,0-1.14,0-2.28.01-3.42,0-.27-.02-.58-.25-.73-.06-.04-.13-.07-.21-.08l.1-.38Z"/>
        <path class="cls-9" d="m32.52,6.04v1.72c0,.19-.01.4-.14.52-.1.09-.24.11-.38.11h-.12c-2.14-.09-4.28-.19-6.42-.28-1.02-.05-2.04-.09-3.06-.14l-.45.02s-.01-.07-.01-.1h-.22c-2.03.43-4.12.54-6.18.34l-.21-.25c1.06-.92,2.17-1.76,3.33-2.52,4.75-3.12,9.7-4.3,13.78-4.67l.08.84v4.41Z"/>
        <path class="cls-9" d="m13.19,13.55c-1.03,0-2.07.14-3.06.42l-.24-.18c1.61-2.14,3.44-4.1,5.44-5.81l.21.25c2.06.2,4.15.09,6.18-.33h.22s0,.06.01.09l.45-.02c1.02.05,2.04.09,3.06.14l-.02.49c0,.43-.01.85-.01,1.28-.01.14-.01.28-.1.39-.1.13-.28.15-.45.17-1.98.18-3.98.24-5.97.18h-.01l.06,2.19c.03.89.05,1.77.08,2.65v.23h-5.44c-.14,0-.29.01-.42.06v-2.2Z"/>
        <path class="cls-9" d="m20.79,66.35l.05.08c-.19.14-.29.37-.38.59-.34.84-.61,1.71-.81,2.6l-.17-.04c-2.72-.04-5.44-.02-8.16.05-.16,0-.34.02-.44.14-.06.09-.07.21-.07.33v4.08c-.11.07-.27.33-.21.45v.23H1.45v-5.97c1.46,0,2.93.01,4.39.01.29,0,.59,0,.85-.11.46-.18.75-.65.85-1.13s.04-.97-.02-1.46l.24-.03c.19-.13.14-.49-.09-.56v-.22c2.55.01,5.08.02,7.62.03.18,0,.37,0,.51-.11.04-.04.07-.08.1-.13l.22.07c1.45-.17,3.09-.29,4.21.65.17.14.32.29.46.45Z"/>
        <path class="cls-9" d="m7.14,57.31c-.13-1.17-.32-2.34-.56-3.5l.03-.78c1,.03,1.99,0,2.98-.01l.47-.53c.13.12.26.23.39.34,2.73,2.28,5.99,4.15,9.56,5.6l-.42,1.02c-.75.02-1.5-.06-2.22-.23-.45-.1-.93-.24-1.35-.05-.34.15-.53.62-.38.91l-.1.38c-.08,0-.17,0-.25,0-2.62,0-5.26,0-7.88.02-.05-1.05-.14-2.11-.27-3.16Z"/>
        <path class="cls-9" d="m19.48,69.58l.17.04c-.27,1.2-.41,2.43-.42,3.66h-.21c-2,1.12-4.39,1.21-6.66,1.56-.11.02-.22.04-.31.1h-.01s-.1-.08-.1-.08h-1.34v-.23l8.88-5.05Z"/>
        <path class="cls-9" d="m19.48,69.58l-8.88,5.05c-.06-.12.1-.38.21-.45v-4.08c0-.12,0-.24.07-.33.1-.12.28-.14.44-.14,2.72-.07,5.44-.09,8.16-.05Z"/>
        <path class="cls-9" d="m19.55,76.68c-.57.8-1.08,1.65-1.52,2.53l-.36-.19c-1.78-.1-3.56-.19-5.35-.28-.12-.01-.25-.02-.34-.09-.06-.05-.1-.11-.12-.19-.04-.1-.04-.22-.04-.32v-2.53c0-.24.02-.52.22-.66h.01c.09-.07.2-.09.31-.11,2.27-.35,4.66-.44,6.66-1.57h.21c0,1.15.1,2.29.32,3.41Z"/>
        <path class="cls-9" d="m1.45,81.22v-2.87h.37c3.33-.06,6.67-.03,10.01.12h.03c.02.07.06.13.12.18.09.07.22.08.34.09,1.79.09,3.57.18,5.35.28l.36.19c-.57,1.12-1.04,2.3-1.41,3.49-.26.84-.49,1.68-.67,2.54l-.52-.12c-.85-.01-1.71-.02-2.56-.03-.01-.31-.02-.64-.03-.95,0-.14,0-.28-.08-.39-.13-.21-.42-.23-.67-.23H1.45v-2.3Z"/>
        <polygon class="cls-14" points="17.45 43.99 10.45 43.99 10.45 41.66 17.45 43.99"/>
        <path class="cls-9" d="m16,61.27c-.01,1.14-.01,2.28-.01,3.42-.01.16-.02.35-.09.49-.03.05-.06.09-.1.13-.14.11-.33.11-.51.11-2.54-.01-5.07-.02-7.62-.03-.74,0-1.49-.01-2.23-.01-1.33,0-2.71,0-3.99.31v-1.73c.4.03.8-.06,1.15-.24l.12.02c1.4-.01,2.81-.02,4.21-.03.16,0,.34,0,.44-.13.06-.09.07-.21.07-.32.02-.93.01-1.86-.03-2.79,2.62-.01,5.26-.01,7.88-.02.08,0,.17,0,.25,0s.15.04.21.08c.23.15.25.46.25.73Z"/>
        <path class="cls-9" d="m5.66,87.68c.15-.66.29-1.32.44-1.98.04-.16.08-.34.2-.45.15-.13.37-.14.57-.15,2-.02,4-.02,6-.01.85.01,1.71.02,2.56.03l.52.12c-.66,2.93-.93,5.95-1.19,8.96v.79H1.45v-7.31h4.21Z"/>
        <path class="cls-9" d="m12.84,84.14c.01.31.02.64.03.95-2-.01-4-.01-6,.01-.2.01-.42.02-.57.15-.12.11-.16.29-.2.45-.15.66-.29,1.32-.44,1.98H1.45v-4.16h10.64c.25,0,.54.02.67.23.08.11.08.25.08.39Z"/>
        <path class="cls-9" d="m11.94,74.86l.1.09c-.2.14-.22.42-.22.66v2.53c0,.1,0,.22.04.32h-.03c-3.34-.14-6.68-.17-10.01-.11h-.37v-3.49h10.49Z"/>
        <path class="cls-14" d="m10.45,43.99v8.84c-.13-.11-.26-.22-.39-.34-2.79-2.38-4.98-5.23-6.34-8.5h6.73Z"/>
        <path class="cls-14" d="m10.45,41.66v2.33H3.72c-.3-.69-.55-1.41-.76-2.14-.27-.92-.47-1.87-.6-2.85h.09s8,2.66,8,2.66Z"/>
        <path class="cls-9" d="m10.06,52.49l-.47.53c-.99.02-1.98.04-2.98.01-1.76-.05-3.51-.24-5.16-.84v-8.2h.18c.02-1.74.25-3.52.68-5.31,0,.11.03.22.05.32.13.98.33,1.93.6,2.85.21.73.46,1.45.76,2.14,1.36,3.27,3.55,6.12,6.34,8.5Z"/>
        <path class="cls-9" d="m7.67,65.61c.23.07.28.43.09.56l-.24.03c.06.49.12.98.02,1.46s-.39.95-.85,1.13c-.26.11-.56.11-.85.11-1.46,0-2.93-.01-4.39-.01v-3.2c1.28-.31,2.66-.32,3.99-.31.74,0,1.49.01,2.23.01v.22Z"/>
        <path class="cls-9" d="m7.41,60.47c.04.93.05,1.86.03,2.79,0,.11,0,.23-.07.32-.1.12-.28.13-.44.13-1.4.01-2.81.02-4.21.03l-.12-.02c-.35.18-.75.27-1.15.24v-11.77c1.65.6,3.4.79,5.16.84l-.03.78c.24,1.16.43,2.33.56,3.5.13,1.05.22,2.11.27,3.16Z"/>
      </g>
      <g>
        <path class="cls-3" d="m5.53,29.52c-.97.11-1.92.23-2.89.34h-.04"/>
        <path class="cls-3" d="m3.5,27.14c.51-.07,1.02-.18,1.52-.32.19-.05.39-.11.52-.27.14-.17.15-.4.16-.62.06-.95.29-1.87.68-2.73.1-.22.21-.44.19-.68-.04-.44-.64-.73-1.01-.48"/>
        <path class="cls-3" d="m5.08,26.94v2.36"/>
        <path class="cls-3" d="m6.09,24.09c.82-.05,1.65-.1,2.48-.15"/>
        <path class="cls-3" d="m63.16,2.39c.07.66.1,1.32.09,1.98,0,.17-.02.35-.09.5-.02.05-.05.1-.09.14-.23.29-.69.36-1.09.39-1.15.07-2.31.08-3.47.04"/>
        <path class="cls-3" d="m63.34,5.11h6.42"/>
        <path class="cls-3" d="m65.9,5s0,.07.01.11c.03.85.08,1.71.12,2.56.01.14.01.28.09.39.07.09.17.15.29.18.11.03.24.03.35.03,1.04,0,2.07,0,3.11,0"/>
        <path class="cls-3" d="m66.27,8.82c-.85,0-1.7.01-2.55,0-1.19.01-2.38.01-3.57.01-.15,0-.31,0-.44-.08-.22-.13-.27-.43-.29-.69-.04-.61-.03-1.22.03-1.83"/>
        <path class="cls-3" d="m63.72,9.05c-.04.73-.05,1.47-.05,2.21.01.12.01.25.07.36.1.17.29.22.49.23.06,0,.13,0,.19,0h5.11"/>
        <path class="cls-3" d="m64.92,37.87c2.02-.12,4.06-.04,6.07.24"/>
        <path class="cls-3" d="m66.16,44.93h4.72"/>
        <path class="cls-3" d="m65.82,42.24c1.24-.13,2.47-.25,3.71-.38"/>
        <path class="cls-3" d="m68.42,45.61c.17-.15.36.16.38.39.06.82.08,1.64.06,2.47,0,.16-.01.32-.1.45-.13.18-.37.22-.59.24-.67.07-1.34.08-2.01.04"/>
        <path class="cls-3" d="m67.95,34.64c-1.27.18-2.54.35-3.82.53"/>
        <path class="cls-3" d="m69.64,31.32c-1.54-.07-3.09.06-4.6.39"/>
        <path class="cls-3" d="m69.41,28.63h-4.35c-.08,0-.16,0-.22-.04-.07-.05-.11-.12-.13-.2-.1-.32-.01-.67.02-1.01.01-.2-.02-.42-.11-.6-.06-.12-.14-.21-.26-.27-.14-.07-.31-.07-.46-.06-1.5.04-3,.09-4.49.13"/>
        <path class="cls-3" d="m64.35,28.69l-2.46.3"/>
        <path class="cls-3" d="m65.03,29.83c.01-.06.02-.12.04-.18"/>
        <path class="cls-3" d="m65.04,31.57s-.01-.05-.01-.08c-.12-.54-.12-1.1,0-1.63"/>
        <path class="cls-3" d="m65.06,31.1c-.02.13-.03.26-.03.39-.08.96-.01,1.94.19,2.88"/>
        <path class="cls-3" d="m64.69,33.12h-.56"/>
        <path class="cls-3" d="m64.69,33.24h-1.01"/>
        <path class="cls-3" d="m65.03,29.86v-.03c.05-.33.09-.65.13-.98"/>
        <path class="cls-3" d="m64.54,27.33c.03-.18.05-.37.08-.55.12-.88.25-1.76.37-2.64.02-.14.04-.29.13-.39.07-.08.15-.13.24-.16.13-.03.27-.04.39-.03,1.57,0,3.14,0,4.7,0h.09"/>
        <path class="cls-3" d="m65.37,23.39s-.09-.01-.13-.01c-2.66-.17-5.32-.04-7.96.38"/>
        <path class="cls-3" d="m65.03,24.91c-.01.25.32.33.56.33,1.47.01,2.93.02,4.39.02"/>
        <path class="cls-3" d="m52.19,18.48l.06-2.79c0-.23.01-.47.01-.7,0-.1,0-.21-.06-.29-.07-.08-.19-.09-.3-.1-2.37-.13-4.73-.07-7.08.2-.16.01-.33.03-.49.05"/>
        <path class="cls-3" d="m54.56,5c.01.52.02,1.03.02,1.55,0,.15,0,.32-.1.44-.09.09-.21.12-.33.15-.18.04-.37.08-.55.11-1.54.29-3.13.27-4.69.25-1.21-.02-2.42-.03-3.63-.05.17-.55.34-1.1.5-1.64.07-.23.14-.46.21-.7.2-.7.33-1.42.24-2.13"/>
        <path class="cls-3" d="m53.61,7.14s-.01.07-.01.11c-.06.7-.11,1.41-.17,2.11,0,.07-.01.13.02.19.05.15.24.18.4.18.89.03,1.78.01,2.67-.07h0c.89-.09,1.77-.23,2.65-.43"/>
        <path class="cls-3" d="m64.25,11.89h-.02c-.43,0-.88.03-1.31.04-.37,0-.75.03-1.12.04-.86.04-1.71.07-2.57.1-.84.03-1.67.06-2.51.09-.2.01-.44-.01-.52-.19-.02-.04-.03-.08-.03-.12,0-.07.02-.14.04-.2.12-.49.24-.97.36-1.45"/>
        <path class="cls-3" d="m61.81,12.2c-.05,1.18-.09,2.35-.14,3.52,0,.08,0,.16.03.22.08.13.25.13.39.13,2.48-.14,4.97-.06,7.44.22"/>
        <path class="cls-3" d="m68.19,19.16c-1.94.22-3.9.34-5.86.36-.99.02-1.98,0-2.97-.03-.06-.01-.12-.01-.18-.01"/>
        <path class="cls-3" d="m59.37,19.28c.11-1.2.15-2.4.11-3.59-.02-1.09-.1-2.18-.24-3.26"/>
        <path class="cls-3" d="m60.08,15.59c.28.12.6.15.9.09"/>
        <path class="cls-3" d="m59.3,15.69h-6.87"/>
        <path class="cls-3" d="m69.53,21.08c-1.39.01-2.77.01-4.16.01h-2.11c-.18,0-.37,0-.53-.09-.16-.1-.25-.32-.14-.47"/>
        <path class="cls-3" d="m65.37,21.76c.04.42.01.84-.11,1.24"/>
        <path class="cls-3" d="m62.33,19.06v1.13"/>
        <path class="cls-3" d="m59.78,22.76c-.31-.89-.36-1.87-.15-2.8"/>
        <path class="cls-3" d="m59.18,17.51c-1.69-.03-3.39-.03-5.09-.02-.12,0-.25,0-.34.08s-.12.21-.14.33c-.07.42-.08.85-.04,1.27"/>
        <path class="cls-3" d="m52.77,17.49h.68"/>
        <path class="cls-3" d="m53.66,20.41c.04-.26.08-.52.12-.79"/>
        <path class="cls-3" d="m55.57,11.91c-2.19.27-4.41.37-6.61.28-.08,0-.16,0-.23-.05-.08-.05-.11-.13-.11-.22-.02-.12.01-.26.05-.37.19-.55.33-1.12.4-1.7.06-.45.08-.9.06-1.35"/>
        <path class="cls-3" d="m50.77,12.53c.11.44.14.91.08,1.36"/>
        <path class="cls-3" d="m8.34,24.01h.56"/>
        <path class="cls-3" d="m6.77,21.66c-.01.24.32.32.56.33h3.71"/>
        <path class="cls-3" d="m8.42,21.55c-.02-.77.8-1.46.53-2.18-.17-.43-.67-.63-1.14-.65-.37-.02-.75.04-1.12.02-.09,0-.18-.01-.26-.02"/>
        <path class="cls-3" d="m8.79,18.79c2.21-.2,4.42-.39,6.63-.59"/>
        <path class="cls-3" d="m13.13,17.61c-.06-.42-.12-.83-.18-1.24-.03-.16-.05-.34.04-.48.05-.07.11-.11.19-.14.13-.05.28-.06.42-.06h6.44"/>
        <path class="cls-3" d="m12.71,15.77c-.77.29-1.64-.46-2.41-.18-.43.16-.7.61-.77,1.07-.07.45.03.91.12,1.36"/>
        <path class="cls-3" d="m9.58,15.9c-.2-.12-.45-.15-.68-.09"/>
        <path class="cls-3" d="m65.26,54.08c1.57-.16,3.17-.1,4.72.17"/>
        <path class="cls-3" d="m22.4,7.97c1.02.05,2.04.09,3.06.14,2.14.09,4.28.19,6.42.28h.12c.14,0,.28-.02.38-.11.13-.12.14-.33.14-.52V1.63"/>
        <path class="cls-3" d="m31.51,5.37c-1.23-.02-2.47-.04-3.71-.06-1.08-.01-2.18-.03-3.23.23-.47.12-.93.29-1.41.39-.77.16-1.57.11-2.35.07-.15-.01-.34-.03-.39-.17-.03-.08-.02-.16,0-.23.05-.31.11-.63.17-.94"/>
        <path class="cls-3" d="m26.57,5.11c.01-.86-.08-1.73-.26-2.58"/>
        <path class="cls-3" d="m41.35,1.04c.64,1.08.66,2.42.61,3.68,0,.11,0,.22.06.3.09.1.23.11.36.11h.61c1-.01,2-.02,3-.02h.14"/>
        <path class="cls-3" d="m38.95,2.52c.13-.16.42-.08.54.09.12.18.12.41.12.62-.01.38-.01.76-.02,1.15,0,.11,0,.23.05.33.14.29.55.29.86.24.49-.08.97-.16,1.46-.23.07-.01.15-.02.22-.03"/>
        <path class="cls-3" d="m32.08,6.02c.15.01.29.01.44.02,2.29.09,4.6-.01,6.87-.31"/>
        <path class="cls-3" d="m42.99,5.47c-.01,1.25-.03,2.51-.04,3.76,0,.05,0,.1.03.14.04.05.11.06.18.07,1.97.13,3.93.27,5.9.41"/>
        <path class="cls-3" d="m42.42,9.57c-.53.07-1.07.13-1.6.16-1.34.12-2.68.15-4.01.1-.09,0-.19-.01-.25-.07-.07-.06-.08-.17-.09-.27-.02-.29-.03-.6-.03-.89,0-.6.03-1.2.1-1.8"/>
        <path class="cls-3" d="m36.57,8.6h-6.41"/>
        <path class="cls-3" d="m48.53,11.93c-2.33,1.14-4.98,1.62-7.57,1.36"/>
        <path class="cls-3" d="m45.43,12.31c.12-.79.09-1.61-.11-2.38"/>
        <path class="cls-3" d="m21.95,8.04v-.05s-.01-.07-.01-.1c-.02-.4.01-.81.12-1.2"/>
        <path class="cls-3" d="m21.72,7.9c-2.03.42-4.12.53-6.18.33"/>
        <path class="cls-3" d="m18.31,8.82c.04.56.06,1.12.05,1.68,0,.08,0,.16-.06.21-.05.06-.14.07-.22.07-1.82.1-3.64.19-5.47.28"/>
        <path class="cls-3" d="m14.23,11.06c.29.36.6.73.71,1.18.12.45,0,1-.42,1.22-.27.14-.59.12-.9.1-.14-.01-.29-.01-.43-.01-1.03,0-2.07.14-3.06.42"/>
        <path class="cls-3" d="m13.18,15.91v-2.02"/>
        <path class="cls-3" d="m18.89,10.4c0,.07,0,.15,0,.22l.06,2.19c.03.89.05,1.77.08,2.65"/>
        <path class="cls-3" d="m18.68,12.83c.09-.01.19-.01.28-.02,1.96-.13,3.94-.11,5.9.06.87.07,1.74.18,2.61.31"/>
        <path class="cls-3" d="m24.88,12.64c-.26-.28-.09-.77.22-.98.32-.21.72-.22,1.1-.22,1.99-.02,3.97-.04,5.95-.05.34-.01.7,0,.97.19.04.03.08.07.11.11.19.22.23.58,0,.75"/>
        <path class="cls-3" d="m25.44,8.6c0,.43-.01.85-.01,1.28-.01.14-.01.28-.1.39-.1.13-.28.15-.45.17-1.98.18-3.98.24-5.97.18"/>
        <path class="cls-3" d="m26.33,11.07c-.22.06-.47.02-.67-.1"/>
        <path class="cls-3" d="m32.45,8.48s.01.08.02.12c.12.71.09,1.44-.06,2.14"/>
        <path class="cls-3" d="m40.85,13.44v-3.38"/>
        <path class="cls-3" d="m33.62,12.08c-.04.15-.07.3-.11.45"/>
        <path class="cls-3" d="m33.2,11.45h.03c2.53-.06,5.08-.07,7.62-.03h.11"/>
        <path class="cls-3" d="m1.7,44.94c.45-.06.92-.03,1.36.09"/>
        <path class="cls-3" d="m14.76,94.2c.26-3.01.53-6.03,1.19-8.96.18-.86.41-1.7.67-2.54.37-1.19.84-2.37,1.41-3.49.44-.88.95-1.73,1.52-2.53.97-1.34,2.11-2.54,3.46-3.5,1.17-.83,2.46-1.47,3.79-2.04,3.52-1.5,7.34-2.47,11.15-2.57,2.07-.06,4.14.14,6.15.64,1.53.38,3.02.95,4.42,1.7,1.34.71,2.61,1.58,3.73,2.6,1.29,1.14,2.4,2.47,3.26,3.95.54.93.99,1.91,1.32,2.95.08.25.15.5.22.75.33,1.26.52,2.55.66,3.85.06.57.11,1.15.16,1.72.04.49.09.98.13,1.48.17,1.92.34,3.84.52,5.77"/>
        <path class="cls-3" d="m64.58,56.52h5.63"/>
        <path class="cls-3" d="m68.74,60.15c-1.13.05-2.25.1-3.38.15-2.76.13-5.53.26-8.29.38-.36.02-.72.04-1.08.05-.62.03-1.25.06-1.87.09"/>
        <path class="cls-3" d="m56,61.02c.03.75.05,1.49.04,2.24v.13c0,.14,0,.3-.1.41-.12.16-.35.17-.55.16-3.93-.13-7.86.16-11.72.86-.1.02-.22.03-.3-.03-.07-.05-.1-.14-.12-.22-.11-.48-.07-.99.11-1.44"/>
        <path class="cls-3" d="m65.35,60.24s.01.04.01.06c.2.9.38,1.8.57,2.69.02.11.05.22.12.29.05.05.11.07.18.09.07,0,.14,0,.21,0h4.1"/>
        <path class="cls-3" d="m66.37,63.34s-.09.02-.14.03c-1.02.23-2.06.4-3.1.52-1.03.12-2.07.19-3.11.2-.16,0-.33-.01-.45-.11-.11-.09-.15-.24-.17-.38-.02-.15-.01-.3.01-.45.1-.73.52-1.46.24-2.14"/>
        <path class="cls-3" d="m59.31,63.14c-1.08.18-2.18.22-3.27.12-.08,0-.15-.01-.23-.02"/>
        <path class="cls-3" d="m63.12,63.85s.01.03.01.04c.18.66.28,1.52-.3,1.87-.08.05-.17.09-.27.11-.17.05-.35.06-.52.07-.18.01-.37.01-.55.01-.72.02-1.43.02-2.15.02-1.81.01-3.61.01-5.42.01-.3,0-.62-.01-.87-.18s-.35-.58-.11-.77"/>
        <path class="cls-3" d="m62.56,65.89c2.74-.18,5.49-.06,8.2.35"/>
        <path class="cls-3" d="m61.49,66.28c-.4.41-.03,1.13-.23,1.67-.03.09-.08.17-.14.23-.31.4-.95.49-1.5.5-3.32.06-6.69-.28-9.96.38-.13.03-.29.05-.4-.04-.08-.08-.09-.22-.1-.34-.02-1.17.1-2.35.35-3.5"/>
        <path class="cls-3" d="m61.09,68.18h.03c1.53.02,3.07.05,4.6.08.45.01.89.01,1.34.02"/>
        <path class="cls-3" d="m65.72,68.66h-.01c-.3,0-.45.36-.51.65-.12.52-.24,1.03-.36,1.55-.06.26-.11.55.03.77.18.27.56.31.88.31.35,0,.7.01,1.05-.01,1.13,0,2.27-.05,3.4-.14"/>
        <path class="cls-3" d="m1.09,52.06c.12.05.24.09.36.13,1.65.6,3.4.79,5.16.84,1,.03,1.99,0,2.98-.01"/>
        <path class="cls-3" d="m2.62,48.91c1.23.29,2.46.58,3.69.86"/>
        <path class="cls-3" d="m6.58,53.81c.24,1.16.43,2.33.56,3.5.13,1.05.22,2.11.27,3.16.04.93.05,1.86.03,2.79,0,.11,0,.23-.07.32-.1.12-.28.13-.44.13-1.4.01-2.81.02-4.21.03"/>
        <path class="cls-3" d="m2.6,63.72c-.35.18-.75.27-1.15.24-.1,0-.21,0-.31-.03"/>
        <path class="cls-3" d="m6.99,57.31h6.99c.18,0,.42-.05.43-.24"/>
        <path class="cls-3" d="m7.33,60.47h.08c2.62-.01,5.26-.01,7.88-.02.08,0,.17,0,.25,0s.15.04.21.08c.23.15.25.46.25.73-.01,1.14-.01,2.28-.01,3.42-.01.16-.02.35-.09.49-.03.05-.06.09-.1.13-.14.11-.33.11-.51.11-2.54-.01-5.07-.02-7.62-.03-.74,0-1.49-.01-2.23-.01-1.33,0-2.71,0-3.99.31-.41.1-.81.24-1.2.41"/>
        <path class="cls-3" d="m16.66,62.15c2.29.14,4.57.28,6.86.42.38.02.81.03,1.12-.2s.35-.81-.01-.96"/>
        <path class="cls-3" d="m15.81,60.25c-.08-.04-.13-.1-.17-.17-.15-.29.04-.76.38-.91.42-.19.9-.05,1.35.05.72.17,1.47.25,2.22.23"/>
        <path class="cls-3" d="m37.94,67.76v-1.86c0-.14,0-.29-.08-.41-.1-.17-.29-.21-.49-.21-.11,0-.23,0-.34.03-4.04.69-8.15,1.03-12.26,1.03-1.01,0-2.03-.03-3.04-.07-.31-.01-.64-.02-.89.16-.19.14-.29.37-.38.59-.34.84-.61,1.71-.81,2.6-.27,1.2-.41,2.43-.42,3.66,0,1.14.1,2.28.32,3.4.01.06.03.13.04.19"/>
        <path class="cls-3" d="m19.02,73.27c-2,1.13-4.39,1.22-6.66,1.57-.11.02-.22.04-.31.1h-.01c-.2.15-.22.43-.22.67v2.53c0,.1,0,.22.04.32.02.08.06.14.12.19.09.07.22.08.34.09,1.79.09,3.57.18,5.35.28"/>
        <path class="cls-3" d="m14.87,87.45c0,.18-.23.23-.41.23H2.04"/>
        <path class="cls-3" d="m5.65,87.72s.01-.03.01-.04c.15-.66.29-1.32.44-1.98.04-.16.08-.34.2-.45.15-.13.37-.14.57-.15,2-.02,4-.02,6-.01.85.01,1.71.02,2.56.03"/>
        <path class="cls-3" d="m12.87,85.2v-.11c-.01-.31-.02-.64-.03-.95,0-.14,0-.28-.08-.39-.13-.21-.42-.23-.67-.23H1.7"/>
        <path class="cls-3" d="m5.33,82.96c.25-.65.51-1.3.76-1.95.03-.08.07-.17.04-.26-.05-.13-.22-.16-.37-.17-1.46-.06-2.93.15-4.31.64-.05.01-.1.03-.15.05"/>
        <path class="cls-3" d="m5.75,80.51c3.45-.13,6.91-.07,10.35.18"/>
        <path class="cls-3" d="m11.83,78.47c-3.34-.15-6.68-.18-10.01-.12"/>
        <path class="cls-3" d="m11.94,74.86H1.25"/>
        <path class="cls-3" d="m8.35,74.29c.24-.3.5-.64.46-1.02-.03-.35-.33-.63-.65-.75-.33-.13-.69-.13-1.04-.13-1.69,0-3.39-.01-5.08-.01"/>
        <path class="cls-1" d="m2.31,38.68c-.37-2.81-.24-5.8.33-8.82.71-3.76,2.1-7.57,4.05-11.12.94-1.72,2.01-3.38,3.2-4.95,1.61-2.14,3.44-4.1,5.44-5.81,1.06-.92,2.17-1.76,3.33-2.52,4.75-3.12,9.7-4.3,13.78-4.67,3.72-.35,6.72-.02,8.19.12.21.02.45.04.73.07,2.56.29,7.85,1.1,13.23,3.97,1.3.69,2.59,1.5,3.86,2.45V1.99h12v25h-.39c.22,1.25.32,2.28.39,3,.12,1.26.18,2.6.16,4h.84v54h-6v7H1.45v-51h.18c.02-1.74.25-3.52.68-5.31"/>
        <polyline class="cls-1" points="65.43 43.99 65.45 43.99 65.45 44.26"/>
        <path class="cls-1" d="m65.45,48.32v3.95c-.25.33-.5.65-.76.96-.02.02-.04.05-.06.07"/>
        <path class="cls-1" d="m65.45,48.32c-.12,1.72-.39,3.39-.82,4.98-.54,2.03-1.35,3.93-2.43,5.61l-3.22-1.08c-1.57.88-3.29,1.63-5.12,2.24-6.08,2.03-13.39,2.59-20.57,1.73-4.6-.54-9.14-1.67-13.28-3.37-3.57-1.45-6.83-3.32-9.56-5.6-.13-.11-.26-.22-.39-.34-2.79-2.38-4.98-5.23-6.34-8.5-.3-.69-.55-1.41-.76-2.14-.27-.92-.47-1.87-.6-2.85-.02-.1-.04-.21-.05-.32,1.87-7.99,7.49-16.08,15.14-20.69,9.19-5.55,18.51-4.39,21-4,.8.12,3.29.55,6.48,1.79,3.63,1.41,8.17,3.88,12.08,8.17.49.54.97,1.1,1.44,1.7.27.34.53.69.79,1.05.07.09.14.19.21.29,1.51,2.15,2.76,4.52,3.71,7,.51,1.31.94,2.65,1.28,4,.52,1.99.85,4.01.99,6,.01.09.02.18.02.27.01.23.03.47.03.7.06,1.13.04,2.26-.03,3.36Z"/>
        <line class="cls-1" x1="62.45" y1="58.99" x2="62.2" y2="58.91"/>
        <path class="cls-3" d="m19.48,69.58c-2.72-.04-5.44-.02-8.16.05-.16,0-.34.02-.44.14-.06.09-.07.21-.07.33v4.08c-.11.07-.27.33-.21.45"/>
        <path class="cls-3" d="m1.25,68.89h.2c1.46,0,2.93.01,4.39.01.29,0,.59,0,.85-.11.46-.18.75-.65.85-1.13s.04-.97-.02-1.46"/>
        <path class="cls-3" d="m24.77,66.19c-.01-.52-.01-1.04-.02-1.57,0-.07.01-.15.06-.2.04-.04.1-.05.16-.05,1.12-.09,2.24-.19,3.35-.28,1.25-.1,5.56.56,4.9-1.74"/>
        <path class="cls-3" d="m20.79,66.35c-.14-.16-.29-.31-.46-.45-1.12-.94-2.76-.82-4.21-.65"/>
        <path class="cls-3" d="m52.55,73.17h8.47c.07,0,.15,0,.2.05.04.04.06.11.06.18.08.63.17,1.26.24,1.9.02.12.04.25.05.37.03.19.05.39-.02.56-.11.26-.4.39-.67.45-.61.15-1.25.08-1.88.08-1.13-.01-2.27.2-3.33.61"/>
        <path class="cls-3" d="m65.59,87.93h-.14c-2.23-.13-4.49-.05-6.72.21"/>
        <path class="cls-3" d="m57.95,84.98h8.84c.14,0,.3,0,.43.07.13.08.21.23.28.38.22.49.35,1.03.37,1.57"/>
        <path class="cls-3" d="m64.02,84.36c.24-.44.49-.89.73-1.33.09-.15.18-.3.32-.4.17-.12.39-.14.61-.15.24-.01.49-.02.73-.03,1.41-.07,2.83-.08,4.25-.05"/>
        <path class="cls-3" d="m66.4,82.26c-.23-.24-.16-.62-.11-.95.06-.33.01-.76-.31-.86-.13-.04-.26-.01-.39.02-2.76.6-5.61.82-8.43.66"/>
        <path class="cls-3" d="m62.78,80.36c1.52.01,3.03.01,4.55.02.4,0,.8,0,1.18-.09.66-.15,1.25-.55,1.92-.64"/>
        <path class="cls-3" d="m71.33,77.01c-1.44-.09-2.89-.04-4.31.18-.59.09-1.17.21-1.74.36-.51.13-1.04.3-1.42.67-.39.36-.59.97-.34,1.44"/>
        <path class="cls-3" d="m63.23,78.2c-2.19.15-4.36.44-6.52.85"/>
        <path class="cls-3" d="m60.98,75.34c.18-.02.36-.03.54-.04,1.35-.09,2.71-.01,4.04.23.32.06.64.13.91.31.27.17.48.48.46.8"/>
        <path class="cls-3" d="m60.87,73.09c3.3-.12,6.61.01,9.89.4"/>
        <path class="cls-3" d="m71.1,72.76c-1.4-.37-2.85-.55-4.29-.55-.59,0-1.18.03-1.77.09"/>
        <path class="cls-3" d="m48.81,70.37c-.14-.37-.08-.81.16-1.12"/>
        <path class="cls-3" d="m37.25,65.02h.13c1.87.07,3.73.09,5.6.04"/>
        <path class="cls-3" d="m7.67,65.61c.23.07.28.43.09.56"/>
      </g>
    </g>
  </g>
  <g id="Layer_5" data-name="Layer 5">
    <g>
      <g>
        <path class="cls-10" d="m19.14,40.56c-1.56-.84-2.57-2.62-2.49-4.39.05-1.13.52-2.22,1.16-3.16,1.04-1.53,2.58-2.71,4.32-3.33.18-.07.39-.12.57-.05.24.1.34.38.4.63.32,1.28.57,2.87,1.8,3.34,1.02.39,2.19-.31,2.72-1.26s.56-2.09.59-3.18c.38,1.51,2.42,2.27,3.74,1.44s1.57-2.9.55-4.07c-.64-.73-1.75-1.48-1.36-2.37.68.36,1.36.73,2.04,1.09.48.26,1.05.52,1.55.31.66-.27.78-1.14.79-1.86.03-1.52.07-3.04.1-4.56-.27,1.78-.41,3.92.99,5.04,1,.8,2.41.75,3.69.65-.44.84-.88,1.68-1.32,2.52-.13.25-.26.56-.11.8.14.22.44.26.7.27,1.12.05,2.25.11,3.37.16-.79,1.39-1.26,2.96-1.36,4.56-.02.37-.02.76.19,1.06.18.25.47.39.75.52,1.21.54,2.49,1.04,3.82,1.02s2.73-.69,3.25-1.91c-.28,1.12-1.38,1.98-1.37,3.13.02,1.39,1.62,2.16,2.98,2.45s2.97.57,3.59,1.82c.05.1.09.21.08.33-.03.2-.21.33-.38.42-2.14,1.21-4.73,1.22-7.18,1.2-4.46-.03-8.92-.06-13.38-.09-5.05-.04-10.29-.11-14.86-2.28"/>
        <path class="cls-16" d="m19.39,40.13c-1.56-.88-2.5-2.67-2.19-4.46s1.69-3.54,3.23-4.58c.33-.22.67-.42,1.03-.59.23-.11.46-.21.7-.3.29-.1.34-.09.45.19.27.68.32,1.43.61,2.11.59,1.34,1.92,2.1,3.33,1.47,1.88-.85,2.1-3,2.15-4.81l-.98.13c.64,2.19,3.72,2.92,5.18,1.11.69-.86.89-2.09.55-3.13-.18-.55-.5-.99-.9-1.39s-1.17-.94-.95-1.58l-.73.3c1.25.67,3.8,2.64,4.83.67.39-.75.31-1.7.33-2.52.03-1.2.05-2.4.08-3.6.01-.55-.9-.7-.98-.13-.23,1.56-.45,3.42.48,4.81,1.05,1.58,2.98,1.64,4.69,1.52l-.43-.75c-.4.77-.81,1.54-1.21,2.31-.26.51-.55,1.1-.14,1.61s1.21.42,1.78.45c.88.04,1.77.09,2.65.13l-.43-.75c-.73,1.33-1.2,2.76-1.38,4.27-.07.61-.15,1.31.21,1.85s1.09.77,1.66,1.01c1.31.54,2.74.95,4.17.68,1.2-.23,2.33-.94,2.85-2.07l-.91-.39c-.36,1.25-1.56,2.15-1.36,3.55.16,1.16,1.19,1.89,2.2,2.3,1.16.47,2.5.45,3.59,1.09.24.14.66.41.73.7.06.23.17-.06-.05.21-.1.12-.42.22-.56.28-.75.34-1.57.54-2.38.67-1.64.25-3.33.19-4.99.18-1.82-.01-3.63-.03-5.45-.04-3.56-.02-7.13.01-10.69-.11s-7.46-.56-10.85-2.14c-.58-.27-1.09.59-.5.86,3.12,1.45,6.51,2.01,9.92,2.21,3.7.22,7.43.15,11.14.17,1.9.01,3.8.03,5.7.04,1.78.01,3.57.09,5.34-.12.74-.09,1.47-.22,2.18-.44.64-.2,1.51-.47,2-.96,1.02-1.02-.78-2.31-1.6-2.65-1.35-.56-3.02-.47-4.18-1.46-1.47-1.25.39-2.77.76-4.08.15-.53-.67-.91-.91-.39-1,2.15-3.66,1.79-5.48,1.09-.45-.17-1.4-.4-1.58-.92-.15-.45,0-1.11.08-1.55.2-1.18.6-2.31,1.18-3.36.19-.34-.05-.73-.43-.75-.56-.03-1.12-.05-1.69-.08-.32-.02-.64-.03-.96-.05-.2,0-.64.05-.82-.04-.25-.13-.08-.27.05-.51s.26-.49.38-.73c.27-.52.55-1.05.82-1.57.16-.31-.03-.78-.43-.75-1.37.1-3.1.2-3.91-1.16-.68-1.13-.48-2.66-.29-3.9l-.98-.13c-.04,1.64.04,3.33-.13,4.96-.03.26-.07.58-.23.79-.3.4-.78.21-1.16.02-.76-.37-1.49-.79-2.23-1.19-.3-.16-.63-.01-.73.3-.32.9.29,1.63.89,2.24.72.73,1.26,1.44,1.04,2.52-.18.91-.87,1.63-1.83,1.65-.9.02-1.8-.53-2.06-1.41-.16-.54-.97-.43-.98.13-.03.98-.03,2.05-.52,2.93-.41.73-1.33,1.39-2.18,1.02-.73-.32-.99-1.24-1.18-1.94-.16-.62-.2-1.56-.82-1.93-.69-.41-1.7.21-2.31.53-.79.42-1.53.97-2.17,1.6-1.31,1.3-2.38,3.09-2.38,4.98s1.09,3.71,2.74,4.64c.56.32,1.07-.55.5-.86h0Z"/>
      </g>
      <g>
        <path class="cls-6" d="m21.28,40.77c-1.34-.78-2.22-2.26-2.34-3.79-.08-.98.14-1.96.55-2.84.26-.57.61-1.11,1.03-1.59.45,0,.88.09,1.43.18.17.03.35.06.54.08.14.02.3.04.44.12.19.11.32.3.44.48.44.67.92,1.32,1.59,1.67.22.11.46.19.72.23.91.13,1.87-.39,2.48-1.1.17-.2.32-.41.45-.62.1-.17.2-.34.3-.46.22-.25.32-.28.43-.37.01-.01.02-.02.04-.03.49,1.1,1.99,1.49,3.17,1.19.11-.03.21-.06.31-.1.13-.05.25-.12.36-.22.18-.15.3-.36.41-.57.41-.87.46-1.93.1-2.77-.31-.73-.91-1.47-.82-2.26.52.06,1.09.3,1.61.61.2.12.4.25.59.34.16.08.32.14.47.15.44.05.6-.15.74-.34.32-.43.79-1.1,1.21-1.99.03.07.06.13.09.2.31.65.6,1.14,1.31,1.19.5.75,1.25,1.07,1.96,1.37-.16.67-.3,1.34-.42,2-.04.2-.07.42.04.61.1.18.28.26.44.33.63.27,1.28.53,1.95.77.08.03.16.06.24.09-.08.68-.05,1.38.09,2.01.08.33.18.63.32.92.09.19.19.4.4.55.15.11.35.18.56.24.03,0,.05.01.08.02.97.27,1.97.52,3,.51.84,0,1.7-.23,2.32-.64.14-.09.28-.19.37-.26.1.47-.56.91-.74,1.43.07.27.16.53.37.82.56.76,1.91,1.16,3.14,1.29.82.08,1.7.14,2.44.33.34.24.52.59.57.98.01.1.01.19-.02.29-.05.17-.2.3-.35.39-.5.32-1.09.44-1.67.53-1.92.3-3.94.32-5.92.33-4.66.03-9.32.07-13.98.1-2.16.02-4.34.03-6.51-.03-1.52-.04-3.09-.14-4.46-.74-1.43-.63-2.48-1.82-2.9-2.94"/>
        <path class="cls-4" d="m21.53,40.34c-2.7-1.66-2.55-5.21-.66-7.44l-.35.15c.56.02,1.11.13,1.66.22.29.04.46.05.68.26.17.17.29.43.43.63.57.78,1.28,1.47,2.27,1.63.93.15,1.86-.23,2.56-.83.65-.55.98-1.33,1.62-1.88l-.79-.1c.74,1.49,3.25,2.12,4.57,1.01.75-.63,1-1.84.93-2.77-.04-.49-.17-.95-.38-1.4-.28-.59-.7-1.14-.67-1.82l-.63.48c.76.11,1.32.5,1.98.85.44.23.95.39,1.43.18.37-.16.59-.52.81-.83.37-.53.68-1.08.96-1.66h-.86c.39.86.84,1.51,1.83,1.63l-.43-.25c.58.81,1.36,1.22,2.26,1.6l-.35-.62c-.14.59-.27,1.18-.38,1.78-.09.48-.18.98.17,1.38.29.32.76.45,1.15.61.55.22,1.1.43,1.66.63l-.37-.48c-.1,1.03,0,2.05.4,3.01.37.87.99,1.11,1.85,1.34,1.96.51,3.91.65,5.63-.56l-.75-.43c.04.47-.63.83-.72,1.3-.1.52.35,1.2.7,1.54.85.83,2.16,1.08,3.3,1.2.38.04.76.07,1.14.11.3.03.83.02,1.09.18.36.22.31.66,0,.87-.28.18-.66.25-.99.31-1.63.32-3.33.35-4.98.37-6.66.1-13.33.2-19.99.11-3.05-.04-7.19.05-8.56-3.35-.24-.59-1.2-.33-.96.27,1.09,2.72,3.78,3.78,6.53,3.99,3.42.25,6.89.1,10.31.08s7.16-.05,10.74-.08c1.68-.01,3.36,0,5.03-.15,1.17-.1,3.17-.1,3.96-1.16.37-.5.2-1.21-.13-1.68-.45-.66-1.2-.66-1.93-.74-1.44-.17-3.81-.12-4.28-1.87l-.05.39c.25-.58.86-.99.81-1.68-.03-.34-.42-.67-.75-.43-1.36.96-2.83.95-4.41.58-.32-.08-.66-.15-.98-.26-.44-.15-.59-.37-.75-.8-.29-.79-.33-1.61-.25-2.44.02-.23-.17-.41-.37-.48-.3-.11-.6-.22-.9-.33-.34-.13-.96-.26-1.23-.5-.44-.39.11-1.81.24-2.34.07-.29-.09-.51-.35-.62-.35-.15-.7-.3-1.02-.51s-.48-.58-.77-.77c-.25-.16-.53-.11-.75-.33-.24-.24-.38-.61-.52-.91-.15-.33-.71-.32-.86,0-.21.43-.43.84-.69,1.24-.11.18-.39.74-.6.83-.4.16-1.12-.48-1.44-.64-.42-.21-.86-.37-1.33-.44-.33-.05-.62.13-.63.48-.04.81.37,1.45.71,2.15.39.8.46,1.66.12,2.5-.55,1.39-2.84,1.03-3.43-.17-.15-.31-.56-.3-.79-.1s-.42.34-.6.57c-.3.4-.51.84-.88,1.19-.74.68-1.8.96-2.66.32-.7-.52-.96-1.52-1.71-1.95-.33-.19-.74-.2-1.1-.26-.47-.08-.99-.21-1.47-.19-.78.03-1.38,1.42-1.65,2.04-.39.9-.6,1.9-.53,2.89.14,1.74,1.1,3.31,2.59,4.23.55.34,1.05-.53.5-.86h0Z"/>
      </g>
      <g>
        <path class="cls-16" d="m23.42,40.99c-2.29-1.5-3.07-4.91-1.65-7.25.26.58.41,1.2.75,1.74.67,1.08,2,1.66,3.27,1.62s2.49-.62,3.48-1.41c.14-.11.29-.23.47-.24.37-.01.55.43.75.75.59.92,1.91.94,3,.86.22-.02.44-.04.62-.16.16-.12.26-.31.34-.5.59-1.43.68-3.07.24-4.56.48-.34,1.17,0,1.53.47s.53,1.07.92,1.51c.61.7,1.71.87,2.56.49s1.42-1.25,1.55-2.17c0,2.07.7,4.13,1.96,5.76.39.51.85.99,1.44,1.24.59.26,1.26.27,1.91.27,1.34,0,2.68.01,4.01.02.13,0,.28,0,.38.1.35.35-.59.7-.62,1.2,2.24.38,4.53.41,6.78.11.48.39.28,1.23-.22,1.59s-1.16.39-1.78.4c-9.18.18-18.37.37-27.55.55-1.59.03-3.29.03-4.6-.86-1.38-.94-2.03-2.84-1.49-4.43"/>
        <path class="cls-7" d="m23.67,40.55c-2.08-1.41-2.73-4.41-1.48-6.57h-.86c.39.91.64,1.85,1.4,2.53.65.57,1.46.92,2.32,1.04.97.13,1.94-.06,2.83-.44.46-.2.89-.44,1.3-.73.13-.09.41-.41.59-.38.09.02.27.44.33.52.45.63,1.14.92,1.9,1.02.68.09,1.76.18,2.36-.21.72-.47.91-1.74,1.02-2.5.15-1.05.07-2.1-.22-3.12l-.23.56c.8-.45,1.37,1.32,1.71,1.75.45.57,1.11.91,1.84.97,1.65.15,2.96-1.17,3.23-2.72l-.98-.13c.01,1.41.31,2.78.88,4.06.51,1.16,1.28,2.42,2.36,3.14,1.2.8,2.87.57,4.23.58.39,0,.79,0,1.18,0,.15,0,1.12.1,1.18,0,.05-.31.03-.41-.07-.29-.04.04-.08.09-.12.13-.08.07-.16.16-.23.24-.15.18-.26.36-.31.59-.05.24.07.57.35.62,2.29.37,4.61.42,6.91.13l-.35-.15c.45.46-.28.95-.67,1.05-.63.16-1.34.1-1.98.11-1.32.03-2.65.05-3.97.08-2.73.05-5.46.11-8.19.16s-5.54.11-8.31.17c-2.58.05-5.21.26-7.79.1-1.22-.08-2.5-.4-3.3-1.39-.73-.91-.95-2.14-.61-3.25.19-.62-.77-.88-.96-.27-.38,1.23-.2,2.6.48,3.7.73,1.16,1.93,1.84,3.26,2.07,1.58.28,3.22.14,4.81.11,1.9-.04,3.81-.08,5.71-.11,3.72-.07,7.45-.15,11.17-.22,1.82-.04,3.64-.07,5.46-.11.91-.02,1.82-.04,2.73-.05.73-.01,1.53.02,2.21-.3.6-.28,1.05-.86,1.06-1.55s-.35-1.17-1.01-1.13c-2.17.15-4.24.23-6.41-.12l.35.62c.08-.39.6-.57.69-1,.1-.45-.23-.83-.66-.91-.68-.13-1.47-.03-2.16-.03-.82,0-1.63,0-2.45-.01s-1.5-.15-2.1-.71c-.53-.5-.94-1.12-1.29-1.76-.73-1.32-1.09-2.8-1.1-4.3,0-.54-.88-.71-.98-.13-.14.8-.57,1.59-1.37,1.89s-1.62.04-2.06-.64c-.39-.6-.6-1.3-1.22-1.72-.52-.35-1.12-.44-1.68-.12-.19.11-.29.35-.23.56.25.91.34,1.86.19,2.81-.07.43-.18.87-.34,1.28-.18.46-.42.5-.89.52-.64.03-1.47.05-2-.38-.48-.39-.57-1.14-1.29-1.23s-1.34.68-1.91.99c-.77.42-1.65.68-2.53.62-.74-.05-1.49-.33-2.04-.84-.64-.6-.85-1.48-1.18-2.26-.15-.36-.69-.29-.86,0-1.54,2.65-.69,6.22,1.83,7.93.53.36,1.03-.5.5-.86h0Z"/>
      </g>
    </g>
    <path class="cls-2" d="m2.47,39.99c2.01-3.47,11.5,1.66,34.59,3,17.44,1.01,27.93-.99,30.4,4,1.73,3.51-1.59,8.28-2.1,9-.67.96-3.63,4.93-13.63,7-4.31.89-18.34,3.8-32.49-4C9.86,53.82.24,43.84,2.47,39.99Z"/>
    <g>
      <path class="cls-13" d="m41.51,93.23l1.58-3.87c.42.15.64.61.94.94.41.44,1.02.66,1.61.79,2.74.61,5.56-.3,8.21-1.2.16.74.32,1.49.48,2.23.05.25.09.54-.08.72-.12.12-.29.16-.46.18-3.85.65-7.81,1.29-11.64.54-.28-.05-.6-.15-.7-.42-.06-.18,0-.38.06-.56.35-1.03.7-2.06,1.05-3.09-1.5.24-2.91.95-4,2.01.84.5,1.78.8,2.75.88"/>
      <path class="cls-12" d="m42,93.36l1.58-3.87-.73.3c.38.18.56.56.84.86s.66.52,1.05.68c.92.37,1.99.47,2.98.45,2.16-.04,4.25-.73,6.28-1.42l-.62-.35c.15.71.45,1.51.48,2.23.01.36-.22.3-.55.35-.39.07-.79.13-1.18.19-1.58.25-3.16.47-4.75.56s-3.09.06-4.61-.19c-.2-.03-.72-.05-.82-.26-.07-.16.29-.88.36-1.07.25-.74.5-1.47.75-2.21.13-.39-.27-.68-.62-.62-1.6.28-3.04,1.03-4.22,2.14-.23.22-.17.63.1.79.94.53,1.93.84,3,.95.64.07.64-.93,0-1-.89-.09-1.72-.37-2.5-.81l.1.79c1.06-1,2.35-1.63,3.78-1.88l-.62-.62c-.32.96-.65,1.91-.97,2.87-.23.69-.25,1.36.51,1.69s1.82.36,2.66.42c1.03.08,2.06.07,3.09.01,2.04-.12,4.07-.44,6.09-.77.71-.12,1.44-.28,1.42-1.16s-.36-1.82-.54-2.67c-.05-.25-.37-.43-.62-.35-1.87.63-3.79,1.29-5.78,1.37-.91.04-1.89-.02-2.75-.34s-1.09-1.15-1.84-1.51c-.32-.15-.61-.02-.73.3l-1.58,3.87c-.24.6.72.86.96.27h0Z"/>
    </g>
    <g>
      <path class="cls-13" d="m28.11,89.45c.09-.06.21.03.29.11,1.01,1.14,1.37,2.87,2.69,3.63,1.35.78,3.09.18,4.59.6-.86-.65-1.39-1.62-2.1-2.43-1.3-1.51-3.22-2.47-5.21-2.6"/>
      <path class="cls-12" d="m28.25,89.93l.1-.02-.39-.05c.29.14.51.62.67.89.18.3.34.62.52.93.37.66.78,1.29,1.39,1.75,1.48,1.11,3.35.42,5,.85.44.11.9-.51.49-.84-.66-.51-1.13-1.19-1.63-1.85s-1.02-1.2-1.65-1.69c-1.27-.97-2.79-1.52-4.37-1.65-.64-.05-.64.95,0,1,1.43.11,2.84.67,3.96,1.58s1.81,2.38,2.99,3.31l.49-.84c-.9-.23-1.82-.17-2.73-.18-.83-.01-1.63-.15-2.23-.75-.52-.52-.84-1.21-1.19-1.85s-.83-1.69-1.67-1.56c-.63.1-.36,1.06.27.96h0Z"/>
    </g>
    <g>
      <g>
        <path class="cls-13" d="m20.96,93.84c.45.2.86-.31,1.09-.75.42-.82.84-1.64,1.26-2.46.06-.12.14-.26.27-.31.23-.09.46.14.62.32.83.94,2.07,1.45,3.31,1.65s2.51.12,3.77.07c.14,0,.29,0,.4.08.12.1.15.28.16.43.02.26.04.53.06.79,0,.09.01.19-.04.27-.07.11-.22.13-.35.13-3.11.16-6.22.31-9.33.47"/>
        <path class="cls-12" d="m20.82,94.32c.86.25,1.4-.5,1.75-1.17.23-.44.45-.88.68-1.32.11-.21.22-.59.39-.76.22-.22.05-.22.32.05,1.26,1.28,3.06,1.72,4.8,1.79.56.02,1.12,0,1.68-.01.21,0,.42-.03.63-.03.36,0,.28.06.3.4.01.13.02.26.03.4.18-.12.14-.15-.1-.09-.26-.05-.61.03-.87.04-.51.03-1.01.05-1.52.08-2.24.11-4.48.22-6.73.34-.64.03-.64,1.03,0,1,1.99-.1,3.98-.2,5.97-.3.98-.05,1.95-.1,2.93-.15.73-.04,1.37-.13,1.31-1.02-.04-.67-.01-1.55-.84-1.69-.39-.07-.83,0-1.22.02-.52.02-1.05.03-1.57,0-.86-.03-1.73-.16-2.53-.48-.36-.14-.7-.32-1.02-.55-.34-.24-.57-.56-.89-.82-.27-.22-.61-.34-.94-.21-.37.15-.53.56-.7.89-.26.5-.52,1.01-.77,1.51-.12.23-.47,1.19-.81,1.09-.62-.18-.88.78-.27.96h0Z"/>
      </g>
      <g>
        <path class="cls-13" d="m23.49,92.06c.66.11,1.31-.21,1.84-.52,1.02-.6,2.02-1.34,3.02-2.04.15-.11.31-.21.5-.28.33-.12.66-.08.96-.05,1.29.11,2.75.11,4.23-.01.25-.02.51-.05.76-.07.87-.09,1.75-.22,2.63-.37.08-.01.17-.03.24,0,.11.03.16.12.2.19.26.44.51.87.77,1.31.07.13.13.26.21.43.05.1.07.22.08.34,0,.2.01.4,0,.59,0,.07-.01.14-.04.19-.1.16-.27.24-.45.28-.18.04-.38.06-.57.08-3.49.25-6.98.5-10.46.76-.36-.47-.65-.95-.87-1.43"/>
        <path class="cls-12" d="m23.49,92.56c1.14.11,2.14-.59,3.05-1.19.51-.34,1.01-.69,1.5-1.04.44-.31.83-.67,1.39-.68s1.15.09,1.71.1c.64.02,1.27,0,1.91-.02,1.15-.05,2.29-.19,3.42-.36.27-.04.58-.05.84-.13.26,0,.3-.03.11-.08.07.13.15.25.22.38.25.43.65.91.77,1.4.09.36.02.62-.36.67-.31.04-.63.05-.94.07-.62.05-1.25.09-1.87.14-2.62.19-5.23.38-7.85.57l.43.25c-.34-.45-.63-.92-.87-1.43-.27-.58-1.13-.08-.86.5.22.47.48.93.8,1.34.37.47.82.31,1.37.27,1.29-.09,2.57-.19,3.86-.28s2.49-.18,3.74-.27c.62-.05,1.25-.09,1.87-.14.44-.03.97-.05,1.33-.34.69-.55.34-1.68,0-2.33-.38-.7-.77-1.83-1.71-1.74-1.19.11-2.37.37-3.57.45s-2.37.1-3.55.03c-.53-.03-1.07-.13-1.59.06-.54.2-1.02.63-1.49.97-1.01.71-2.36,1.96-3.67,1.83-.64-.06-.64.94,0,1h0Z"/>
      </g>
      <g>
        <path class="cls-13" d="m26,91.29c2.56.06,4.97-1.04,7.38-1.91,2.52-.91,5.12-1.58,7.71-2.25,1.45-.37,2.89-.75,4.34-1.12.1-.03.22-.05.31,0,.13.07.15.24.15.39.03,1.15.07,2.3.1,3.44,0,.26.01.52-.11.75-.23.43-.8.52-1.28.56-4.53.38-9.06.76-13.59,1.15-.2-.96-.25-1.96-.15-2.94"/>
        <path class="cls-12" d="m26,91.79c2.41.02,4.65-.86,6.87-1.69,2.36-.88,4.77-1.55,7.2-2.19,1.26-.33,2.53-.66,3.8-.98l.96-.25.36-.09c.16-.04.41.02.28-.14-.17-.21-.08.24-.07.32,0,.16,0,.33.01.49.01.37.02.74.03,1.11.02.55.16,1.26.03,1.79-.14.61-1.13.52-1.62.56-1.32.11-2.64.22-3.95.33-2.97.25-5.93.5-8.9.75l.48.37c-.18-.93-.22-1.86-.13-2.81.06-.64-.94-.64-1,0-.1,1.04-.03,2.05.16,3.07.04.2.28.38.48.37,2.97-.25,5.93-.5,8.9-.75,1.48-.12,2.97-.25,4.45-.37.97-.08,2.02-.29,2.13-1.45.06-.69-.02-1.42-.04-2.11-.02-.63.06-1.39-.08-2.01-.11-.45-.46-.66-.91-.62-.69.06-1.42.36-2.09.53-2.78.72-5.59,1.4-8.33,2.27-2.95.94-5.88,2.52-9.03,2.49-.64,0-.64.99,0,1h0Z"/>
      </g>
      <g>
        <path class="cls-13" d="m33.72,91.91c-.04.44-.01.89.1,1.33,2.3-.41,4.61-.81,6.91-1.22.25-.04.53-.11.65-.35.06-.12.06-.27.06-.41,0-.14,0-.27,0-.41,0-.49-.01-.99-.04-1.48,0-.08-.02-.16-.08-.22-.08-.07-.18-.09-.28-.09-.09,0-.19.01-.28.02-1.45.2-2.9.41-4.36.63-1.19.18-2.38.37-3.57.57-.26.04-.53.09-.76.21-.51.26-.73.73-1.21,1.03-.04.36.04.49.1.61.2.45.41,1.05.54,1.11"/>
        <path class="cls-12" d="m33.22,91.91c-.04.5,0,.98.12,1.46.06.28.36.39.62.35,1.96-.35,3.93-.69,5.89-1.04.63-.11,1.61-.11,1.97-.76.17-.32.13-.72.12-1.07,0-.46,0-.93-.03-1.39-.06-.89-.75-.93-1.49-.83-1,.14-2.01.29-3.01.43s-1.95.29-2.93.45c-.81.13-1.76.16-2.52.49-.42.18-.71.49-1.02.81s-.6.43-.58.94c.01.33.17.61.29.91s.24.71.5.94c.48.43,1.19-.28.71-.71-.18-.16-.25-.52-.34-.74-.1-.25-.17-.36-.15-.63l-.25.43c.6-.42.93-1.01,1.69-1.16s1.56-.26,2.34-.38c1.74-.27,3.48-.53,5.23-.77.11-.02.44-.12.53-.08.04.02.02.48.02.55,0,.34.09.82.02,1.15-.05.21,0,.18-.22.26-.16.06-.36.07-.53.1-.44.08-.88.16-1.32.23-1.73.31-3.46.61-5.18.92l.62.35c-.09-.4-.11-.79-.08-1.2.05-.64-.95-.64-1,0h0Z"/>
      </g>
      <g>
        <path class="cls-13" d="m41.22,93.97l.33-1.86c.02-.1.03-.21,0-.3-.08-.19-.34-.22-.56-.21-2.81.1-5.62.25-8.43.46-.28.02-.57.05-.79.21-.49.36-.4,1.16-.82,1.59.6.51,1.45.53,2.24.54,2.82.02,5.64.13,8.45.32"/>
        <path class="cls-12" d="m41.7,94.11c.12-.69.37-1.45.37-2.15,0-.48-.36-.78-.82-.84-.69-.09-1.46.03-2.16.06-.74.03-1.48.07-2.21.11-1.47.08-2.94.14-4.4.28-.52.05-1.01.18-1.32.63-.27.39-.26.95-.57,1.31-.23.27-.17.58.1.79.62.48,1.39.58,2.15.6.96.03,1.92.02,2.88.05,1.97.05,3.94.14,5.91.27.64.04.64-.96,0-1-1.83-.12-3.66-.21-5.49-.26-.92-.03-1.83-.04-2.75-.05-.77,0-1.56.02-2.2-.47l.1.79c.23-.28.37-.57.48-.92.17-.54.3-.7.89-.75,1.16-.09,2.32-.16,3.48-.23s2.25-.12,3.37-.17c.28-.01.56-.02.84-.03.18,0,.35-.02.53-.02.06,0,.11,0,.17,0,.08-.01.09,0,.02.04,0,.01-.09.3-.1.35l-.07.41-.16.93c-.11.63.85.9.96.27h0Z"/>
      </g>
      <g>
        <path class="cls-13" d="m49.51,91.49c-.12-.21-.25-.35-.37-.5-.07-.09-.14-.18-.21-.26-.03-.04-.06-.08-.12-.11-.12-.07-.34-.06-.52-.03-2.2.34-4.39.71-6.59,1.09-.16.03-.33.06-.47.11-.13.05-.24.11-.34.18-.06.04-.12.08-.18.12-.11.08-.23.18-.32.3-.26.34-.33.83-.51,1.24-.04.09-.08.18-.11.26.1.19.35.27.57.31.66.11,1.37.12,2.06.12,1.99,0,3.99.03,5.98.07.11,0,.23,0,.32-.04.13-.05.2-.14.26-.22.43-.57.77-1.14,1.03-1.67"/>
        <path class="cls-12" d="m49.95,91.24c-.34-.53-.74-1.19-1.44-1.17-.9.02-1.85.28-2.74.42-.97.16-1.93.32-2.89.48-.78.13-1.66.17-2.33.62s-.82,1-1.07,1.7c-.12.33-.31.58-.1.91.18.29.51.42.83.49.88.18,1.8.14,2.69.14.96,0,1.93.01,2.89.02.53,0,1.06.01,1.6.02.46,0,1.01.11,1.45-.04.39-.13.62-.53.84-.84.28-.41.53-.84.75-1.28.29-.57-.58-1.08-.86-.5-.18.36-.38.71-.6,1.05-.1.16-.22.41-.37.53-.17.14-.39.1-.61.09-.9-.02-1.79-.03-2.69-.04s-1.8-.02-2.69-.02c-.45,0-.89,0-1.34-.03-.24-.01-.92.03-1.06-.16l.05.39c.28-.68.37-1.45,1.12-1.76.38-.16.87-.18,1.27-.25.5-.09,1-.17,1.5-.26.96-.16,1.93-.32,2.89-.48.47-.07.94-.17,1.41-.22.2-.02.07-.08.25.14.14.17.27.34.4.53.35.54,1.21.04.86-.5h0Z"/>
      </g>
      <g>
        <path class="cls-13" d="m57.51,89.17c-.32-.03-.63.07-.94.16-2.35.73-4.7,1.46-7.04,2.2-.14.04-.29.09-.4.19-.16.13-.23.34-.29.53-.17.53-.34,1.06-.51,1.59-.03.08-.06.17-.04.26.04.26.38.32.65.32,3.07,0,6.15,0,9.22,0,.13,0,.26,0,.36-.08.13-.11.14-.3.14-.47-.03-1.19-.23-2.37-.6-3.5"/>
        <path class="cls-12" d="m57.51,88.67c-.95-.01-1.94.45-2.83.73-.98.31-1.96.61-2.94.92-.49.15-.98.31-1.47.46-.44.14-.95.23-1.34.47-.65.41-.79,1.52-1.01,2.2s-.12,1.31.7,1.45c.91.15,1.94.03,2.86.03,2.08,0,4.17,0,6.25,0,.38,0,.82.05,1.13-.23s.29-.73.27-1.12c-.05-1.13-.26-2.25-.61-3.34-.19-.61-1.16-.35-.96.27.31.97.51,1.96.56,2.97,0,.13.01.26.02.4,0,.16,0,.17,0,.05-.17.08-.62,0-.82,0-.48,0-.96,0-1.43,0-2.02,0-4.03,0-6.05,0-.24,0-.48,0-.72,0-.11,0-.21,0-.32,0-.13-.05-.14-.03,0,.06.1-.41.27-.83.4-1.23.07-.21.11-.52.3-.67.17-.13.54-.17.75-.24.46-.14.91-.28,1.37-.43.98-.31,1.96-.61,2.94-.92.46-.14.91-.28,1.37-.43.51-.16,1.05-.4,1.59-.39.64,0,.64-.99,0-1h0Z"/>
      </g>
      <g>
        <path class="cls-13" d="m45.15,87.93c.33,0,.67.07,1.01.15,1.61.39,3.18.79,4.71,1.19.09.02.19.05.25.14.05.07.05.17.06.26,0,.31.02.62.02.93,0,.21,0,.42,0,.63,0,.19-.04.4-.2.5-.11.06-.23.07-.36.06-.1,0-.2-.03-.3-.04-2.84-.48-5.74-.79-8.66-.92-.26-.01-.55-.05-.7-.19-.05-.05-.08-.09-.11-.14-.18-.28-.37-.56-.55-.83.04-.12.08-.24.17-.33.06-.06.14-.1.22-.14,1.28-.61,2.57-1.21,3.86-1.81.17-.08.34-.16.52-.17"/>
        <path class="cls-12" d="m45.15,88.43c.78.02,1.58.3,2.34.49s1.5.38,2.25.57c.21.05.86.11,1,.26-.14-.15-.05.18-.05.29,0,.15,0,.31.01.46,0,.17.02.34,0,.51-.02.3.03.24-.24.25-.36,0-.79-.13-1.15-.18-1.48-.22-2.96-.41-4.45-.54-.78-.07-1.56-.13-2.34-.17-.31-.02-.74.04-1.04-.06-.34-.12-.55-.6-.75-.89l.05.39c.09-.25.51-.33.74-.44.42-.2.83-.39,1.25-.59.76-.36,1.6-.9,2.43-1.07.63-.13.36-1.09-.27-.96-.43.09-.82.31-1.22.49-.52.24-1.03.48-1.55.72-.45.21-.9.42-1.35.63-.35.17-.69.3-.88.65s-.13.59.1.92.42.77.78.97c.32.18.71.18,1.06.2.57.03,1.14.06,1.7.1,2.07.15,4.14.39,6.19.72.74.12,1.68.31,1.88-.65.09-.41.03-.87.02-1.28,0-.35.05-.82-.18-1.12-.28-.38-.89-.42-1.31-.53-.54-.14-1.08-.28-1.63-.42-1.1-.28-2.28-.71-3.43-.73-.64-.02-.64.98,0,1h0Z"/>
      </g>
      <g>
        <path class="cls-13" d="m32.51,85.48c.61-.18,1.25-.18,1.88-.18,3,0,6,0,9,.01.18,0,.37.01.49.14.1.11.1.27.11.41.02.82.03,1.64.05,2.46,0,.3-.02.67-.29.8-.2.1-.43.03-.64-.05-3.54-1.25-7.28-1.92-11.03-1.99.27-.61.55-1.22.86-1.81"/>
        <path class="cls-12" d="m32.64,85.96c1.01-.26,2.13-.16,3.16-.16,1.11,0,2.21,0,3.32,0s2.21,0,3.32,0c.17,0,.82-.1.95,0,.15.12.1.3.1.5.01.56.02,1.12.03,1.68,0,.09.07.6-.02.67-.11.08-.49-.13-.6-.17-.5-.17-1-.33-1.5-.48-1.01-.29-2.03-.54-3.06-.75-2.07-.41-4.17-.63-6.28-.67l.43.75c.27-.61.56-1.22.86-1.81s-.57-1.08-.86-.5-.6,1.2-.86,1.81c-.15.34.02.74.43.75,2.02.04,4.03.25,6.02.64.99.2,1.98.43,2.95.72.47.14.93.28,1.4.44.38.13.81.34,1.22.28.74-.1.89-.83.88-1.45,0-.48-.02-.97-.03-1.45,0-.42.06-.91-.07-1.31-.28-.85-1.43-.63-2.11-.63-1.03,0-2.05,0-3.08,0-1.18,0-2.37,0-3.55,0-1.1,0-2.24-.09-3.31.19-.62.16-.36,1.13.27.96h0Z"/>
      </g>
      <g>
        <path class="cls-13" d="m25.54,89.42c.65-.31,1.3-.54,1.94-.79,1.63-.63,3.19-1.35,4.66-2.14.71-.38,1.49-.82,2.37-.77.71.04,1.29.38,1.83.73.15.1.32.2.44.36.09.12.14.27.19.4.28.77.64,1.5,1.04,2.13.15.23.3.48.31.6,0,.08-.02.07-.03.05-3.78-.04-7.82-.38-11.7.14-.22-.21-.43-.39-.62-.55"/>
        <path class="cls-12" d="m25.79,89.86c1.17-.54,2.4-.95,3.58-1.47s2.32-1.12,3.47-1.71,2.49-.64,3.45.34c.34.35.47,1.02.68,1.47.14.29.29.57.45.85.06.1.4.65.41.54l.73-.3c-.27-.2-.89-.09-1.2-.1-.47,0-.94-.02-1.41-.04-1.04-.03-2.07-.06-3.11-.08-2.09-.03-4.18,0-6.25.28l.35.15c-.2-.19-.41-.37-.62-.55-.49-.41-1.2.29-.71.71.29.24.58.65.98.7.51.06,1.15-.13,1.67-.17,1.12-.09,2.25-.11,3.37-.11s2.24.03,3.36.06c.55.02,1.11.03,1.66.05.23,0,.47.01.7.02.08,0,.74,0,.7-.04.24.18.69,0,.73-.3.08-.56-.36-1.03-.62-1.49-.36-.63-.54-1.34-.89-1.96-.29-.52-.94-.86-1.46-1.11-.6-.28-1.23-.42-1.89-.33-1.42.2-2.74,1.19-4.01,1.79-1.52.72-3.12,1.24-4.64,1.95-.58.27-.08,1.13.5.86h0Z"/>
      </g>
      <g>
        <path class="cls-13" d="m18.35,91.98c2.44-1.55,4.64-3.48,6.5-5.69.65-.77,1.43-1.65,2.43-1.55,1.03.11,1.61,1.18,2.18,2.04.89,1.34,2.23,2.46,3.82,2.74-4.74,1.38-9.9,1.13-14.48,2.98"/>
        <path class="cls-12" d="m18.61,92.42c1.44-.92,2.8-1.96,4.05-3.11.64-.59,1.25-1.2,1.84-1.84.54-.59,1.02-1.29,1.65-1.8,1.6-1.29,2.49.9,3.31,1.94.93,1.18,2.2,2.1,3.7,2.4v-.96c-4.75,1.36-9.85,1.14-14.48,2.98-.59.23-.33,1.2.27.96,4.63-1.84,9.73-1.62,14.48-2.98.45-.13.5-.86,0-.96-1.77-.35-2.9-1.59-3.85-3.03-.77-1.17-1.92-2.26-3.4-1.54-.71.34-1.23.96-1.73,1.55-.59.69-1.2,1.35-1.85,1.98-1.37,1.33-2.87,2.52-4.48,3.55-.54.35-.04,1.21.5.86h0Z"/>
      </g>
    </g>
    <g>
      <path class="cls-13" d="m54.43,86.15c-.21.27-.51.46-.81.64-2.79,1.72-5.58,3.44-8.37,5.16,1.13.27,2.31.04,3.47.13,1.57.12,3.03.81,4.48,1.41.13.05.27.11.4.08.31-.06.38-.46.39-.78.04-1.96.08-3.93.12-5.89"/>
      <path class="cls-12" d="m54.07,85.79c-.54.62-1.41,1-2.1,1.42-.78.48-1.55.96-2.33,1.43-1.55.96-3.1,1.91-4.65,2.87-.35.21-.32.82.12.91,1.41.31,2.86-.04,4.27.23.69.13,1.36.36,2.02.61.61.24,1.23.6,1.86.75,1.45.36,1.23-1.78,1.25-2.59.03-1.52.06-3.04.09-4.55.01-.64-.99-.64-1,0-.03,1.31-.05,2.62-.08,3.93-.01.62-.02,1.25-.04,1.88,0,.09.01.2-.02.28-.06.17.06.06-.14.02-.27-.05-.58-.24-.83-.35-1.08-.45-2.17-.87-3.33-1.03-1.26-.17-2.55.12-3.79-.16l.12.91c1.6-.99,3.2-1.97,4.81-2.96.78-.48,1.55-.96,2.33-1.43.72-.44,1.59-.84,2.15-1.48.42-.48-.28-1.19-.71-.71h0Z"/>
    </g>
    <g>
      <g>
        <path class="cls-11" d="m56.37,89.16c.01.35-.53.35-.85.21-.92-.42-1.81-.95-2.41-1.77s-.82-1.96-.33-2.84c.17-.32.43-.59.58-.91.17-.37.2-.79.23-1.19.05-.74.08-1.55-.32-2.17-.39-.6-1.11-.89-1.71-1.27s-1.19-1.02-1.05-1.73c.09-.45.47-.87.34-1.31-.16-.14-.36.11-.4.32-.2.95-.02,1.98.48,2.81.12.19.25.39.26.61,0,.51-.65.77-.85,1.24-.28.67.44,1.31.62,2.02.22.88-.43,1.77-.36,2.68.04.53.32,1.09.07,1.55-.2.38-.7.55-.87.95-.15.35,0,.76.02,1.14s-.27.86-.64.74"/>
        <path class="cls-15" d="m55.89,89.03c.02-.12-.13-.11-.3-.18-.15-.06-.3-.15-.45-.23-.31-.17-.61-.35-.88-.56-.58-.46-1.06-1.06-1.2-1.8-.17-.88.3-1.35.68-2.07.31-.6.35-1.29.37-1.95.05-1.37-.42-2.34-1.6-3.05-.52-.31-1.37-.66-1.51-1.33-.07-.33.12-.61.23-.91.12-.32.14-.58.09-.92-.03-.17-.2-.3-.35-.35-1.51-.45-1.1,2.39-.85,3.09.12.32.34.61.45.92.15.41-.19.54-.44.84-.37.44-.45.97-.26,1.51.24.69.73,1.15.56,1.93-.15.7-.42,1.33-.33,2.06.05.41.3.9,0,1.25-.18.21-.43.34-.6.56-.2.25-.29.54-.29.86,0,.09.1,1.03.08,1.03-.63-.09-.9.87-.27.96.56.08.99-.18,1.18-.73.1-.28.08-.53.05-.83-.06-.56.03-.69.42-1.05.52-.48.63-1.02.5-1.7-.08-.42-.14-.77-.05-1.21.08-.39.23-.76.29-1.15.11-.66-.04-1.2-.34-1.78-.16-.3-.45-.67-.27-1.01.14-.27.47-.44.63-.7.35-.53.17-1.01-.11-1.52-.22-.39-.38-.8-.45-1.24-.03-.2-.15-1.12.07-1.24l-.39.05.12.04-.35-.35c.05.35-.31.82-.36,1.18-.04.32,0,.63.14.93.32.71.98,1.13,1.63,1.51.9.52,1.36,1.03,1.35,2.12,0,.42,0,.88-.11,1.29-.12.49-.48.83-.7,1.26-.72,1.43-.01,3.12,1.13,4.09.55.47,3.14,2.27,3.41.61.1-.63-.86-.9-.96-.27h0Z"/>
      </g>
      <g>
        <path class="cls-11" d="m41.13,87.11c.23.06.43-.18.47-.37s.01-.39.14-.57c.14-.2.45-.28.61-.47.19-.23.12-.51.17-.77.08-.45.53-.9.53-1.34,0-.35-.26-.67-.03-1.01.17-.24.56-.36.62-.62.03-.11-.01-.21-.04-.31-.13-.42-.09-.93.14-1.41.05-.1.17-.23.28-.16.11.2.01.39,0,.59,0,.02,0,.04,0,.06.02.35.41.67.8.86.4.18.84.32,1.13.59.52.01.85-.26.94-.53.09-.27-.03-.55-.19-.79.02.11.03.22.05.33.06.38.16.76.32,1.09.15.28.36.51.56.61.1.05.19.07.27.05.21-.04.28-.26.2-.46-.02-.04-.04-.08-.06-.11-.1-.15-.27-.28-.45-.37-.14-.07-.29-.12-.38-.22-.2-.23.05-.52.3-.75.25-.23.47-.6.26-.78-.09,2.07.77,4.19,2.3,5.72.18.18.36.35.58.49.05.03.1.06.15.09.7.35,1.66.21,2.15.41"/>
        <path class="cls-15" d="m41.13,87.61c.32,0,.6-.12.78-.39.23-.32.14-.64.44-.9.28-.25.51-.4.6-.79.04-.18.02-.36.06-.54.05-.21.17-.38.26-.57.17-.33.28-.64.25-1.01-.01-.12-.12-.36-.1-.47.03-.2.28-.28.41-.41.25-.24.34-.53.28-.87-.03-.18-.09-.33-.09-.52,0-.14.02-.28.06-.41.11-.18.09-.23-.07-.15l-.48-.37c.08.3-.05.56.06.86.11.28.31.5.55.68.26.2.54.32.84.44s.55.37.84.46c.47.15,1.13-.18,1.4-.56.34-.48.21-1.03-.08-1.5-.31-.52-.99-.15-.91.39.11.74.27,1.53.82,2.07.44.42,1.24.58,1.53-.11.12-.28.06-.6-.09-.85-.07-.11-.17-.22-.27-.31-.08-.07-.39-.19-.43-.27-.07-.05-.09-.05-.05,0,.09-.09.18-.18.27-.27.1-.12.19-.25.26-.39.14-.29.15-.6-.04-.87-.28-.4-.92-.27-.93.25-.05,1.73.47,3.46,1.46,4.88.46.66,1.03,1.4,1.74,1.81s1.57.24,2.34.5c.61.2.87-.76.27-.96-.65-.22-1.4-.05-2.03-.36s-1.19-1.07-1.57-1.65c-.83-1.26-1.26-2.71-1.21-4.22l-.93.25c-.04-.05-.63.71-.67.85-.11.36.05.69.34.9.12.08.32.21.46.25.13.18.22.13.27-.14-.08-.07-.15-.15-.19-.25-.25-.4-.31-.92-.37-1.38l-.91.39c.23.38.11.55-.32.57l.35.15c-.38-.31-.8-.45-1.23-.67-.22-.11-.49-.24-.56-.49-.06-.21.04-.48-.02-.72s-.26-.34-.48-.37c-.76-.09-.99.99-.99,1.56,0,.16.05.32.05.47,0,.28.05.18-.19.39-.26.22-.43.46-.45.81-.03.42.18.69-.01,1.09-.16.34-.35.62-.4,1-.03.2,0,.37-.16.54-.13.14-.34.2-.47.36-.08.09-.37.79-.25.79-.64-.02-.64.98,0,1h0Z"/>
      </g>
      <g>
        <path class="cls-11" d="m33.09,89.13l4.41.02c.38,0,.77,0,1.13-.11.85-.26,1.42-1.12,1.56-2s-.09-1.78-.39-2.62c.15.71.35,1.44.83,2s1.3.86,1.95.54c.53-.27.82-.9.78-1.5s-.35-1.14-.75-1.59c-.25-.27-.54-.52-.7-.85-.39-.79.08-1.71.47-2.5s.69-1.85.06-2.47c-.7,3.42.23,7.14,2.47,9.82.32.38.67.75,1.11.99,1.08.59,2.52.32,3.51,1.05"/>
        <path class="cls-15" d="m33.09,89.63l3.43.02c.98,0,2.07.14,2.91-.45,1.63-1.13,1.43-3.27.85-4.91-.21-.6-1.11-.37-.96.27.29,1.29.87,2.76,2.35,3,1.36.22,2.34-1,2.17-2.29-.08-.67-.43-1.25-.88-1.74-.26-.29-.58-.53-.67-.93s.08-.87.25-1.24c.52-1.18,1.25-2.49.26-3.64-.24-.27-.77-.14-.84.22-.53,2.7-.16,5.51,1.07,7.97.58,1.16,1.39,2.46,2.47,3.22,1.14.8,2.65.46,3.78,1.22.54.36,1.04-.51.5-.86-.98-.66-2.15-.52-3.21-.91-1.2-.44-2.03-1.91-2.59-2.99-1.17-2.25-1.55-4.89-1.06-7.38l-.84.22c.7.81-.34,2.15-.62,2.94-.32.9-.24,1.75.41,2.48.38.43.79.8.94,1.38.12.49,0,1.14-.54,1.34-1.26.47-1.81-1.41-2-2.25l-.96.27c.44,1.25.86,3.6-.93,4.04-.81.2-1.78.06-2.61.05l-2.69-.02c-.64,0-.64,1,0,1h0Z"/>
      </g>
      <g>
        <path class="cls-11" d="m31.11,88.31c.57.33,1.37.44,2.12.42.82-.02,1.63-.17,2.36-.42.36-.13.69-.31,1.02-.51.47-.29.85-.78.97-1.33.12-.56.05-1.13-.08-1.67.1.25.21.52.45.69.24.17.65.23.96-.04.26-.22.38-.62.34-1-.04-.38-.23-.73-.47-1.03-.04-.06-.09-.11-.14-.16-.11-.13-.21-.25-.28-.4-.25-.52-.06-1.11.2-1.61.26-.5.54-1.06.34-1.42.18.18.3.22.35.26s.03.07.04.1c.38,2.13.55,4.3,1.47,6.18.08.16.16.31.25.46.15.24.31.47.5.67.76.8,1.82,1.11,2.68,1.89"/>
        <path class="cls-15" d="m30.86,88.75c1.5.8,3.61.58,5.13-.06.75-.32,1.48-.77,1.85-1.52s.31-1.67.13-2.51l-.96.27c.27.68.74,1.29,1.56,1.18.77-.1,1.19-.84,1.18-1.57,0-.37-.14-.74-.32-1.06-.23-.4-.71-.72-.69-1.23.04-.91,1-1.6.64-2.56l-.84.49c.12.11.29.2.4.31-.15-.24-.19-.23-.1.05.02.15.05.29.07.44.08.51.16,1.03.24,1.54.17,1.04.37,2.08.74,3.08.31.86.72,1.75,1.4,2.39.75.71,1.75,1.07,2.53,1.75.49.42,1.2-.29.71-.71-.78-.67-1.79-1.04-2.53-1.75s-1.1-1.72-1.38-2.66-.45-2.01-.61-3.02c-.08-.49-.08-1.08-.25-1.54-.11-.29-.3-.38-.52-.58-.34-.31-1.02-.02-.84.49s-.36,1.09-.52,1.55-.22.93-.06,1.39.5.71.73,1.1c.13.23.29.62.14.89-.3.54-.61.1-.73-.21-.24-.59-1.11-.38-.96.27s.23,1.33-.12,1.9-1.11.91-1.74,1.1c-1.16.35-2.67.55-3.78-.04-.57-.3-1.07.56-.5.86h0Z"/>
      </g>
      <g>
        <path class="cls-11" d="m29.14,88.92c.44.66,1.33.87,2.12.82,1.29-.08,2.57-.71,3.32-1.77s.91-2.53.32-3.69c-.15-.29-.35-.64-.18-.92.13-.21.4-.27.62-.37.49-.23.79-.73.91-1.26s.07-1.07.03-1.6c.54,2.15-.17,4.48.42,6.61.37,1.33,1.22,2.47,2.12,3.51"/>
        <path class="cls-15" d="m28.71,89.18c.83,1.14,2.34,1.25,3.61.9s2.51-1.26,3.07-2.53c.27-.62.41-1.32.36-2-.03-.33-.08-.65-.19-.96-.06-.17-.48-.81-.41-.95.04-.09.36-.16.44-.2.13-.06.24-.14.35-.23.26-.21.46-.49.6-.79.33-.72.3-1.5.23-2.27l-.98.13c.44,1.86-.01,3.79.24,5.67s1.25,3.31,2.43,4.67c.42.49,1.13-.22.71-.71-1.18-1.36-2.1-2.81-2.21-4.65s.2-3.51-.21-5.25c-.13-.54-1.03-.44-.98.13.05.62.14,1.33-.16,1.9-.28.52-.8.5-1.17.88-.43.42-.28.99-.05,1.47.27.58.42,1.14.35,1.79-.13,1.2-.93,2.18-2.01,2.69-.87.41-2.49.73-3.16-.2-.37-.52-1.24-.02-.86.5h0Z"/>
      </g>
    </g>
    <g>
      <g>
        <path class="cls-11" d="m22.37,88.9c1.45.24,2.91.37,4.38.37.41,0,.82,0,1.19-.18.89-.4,1.17-1.52,1.34-2.48.12-.68.24-1.38.14-2.07s-.45-1.38-1.06-1.71c-.56-.3-1.43-.48-1.38-1.12.02-.22.16-.4.29-.57.74-.94,1.48-1.88,2.22-2.81.37-.47.74-.94.92-1.51s.11-1.25-.32-1.66c-.06.72-.12,1.46.03,2.17s.57,1.4,1.23,1.71c.24.12.51.18.73.34.6.44.49,1.34.4,2.07-.28,2.13.03,4.33.88,6.29"/>
        <path class="cls-15" d="m22.24,89.39c1.25.21,2.51.34,3.78.38.92.03,1.94.1,2.68-.57.64-.58.89-1.47,1.04-2.28.19-.98.38-2.04.05-3.01-.27-.82-.82-1.34-1.59-1.69-.16-.07-.43-.14-.56-.28-.23-.24-.04-.38.14-.61.39-.5.79-1,1.19-1.5,1.05-1.33,3.01-3.3,1.49-5-.31-.35-.82-.05-.85.35-.09,1.11-.15,2.28.43,3.28.24.41.58.77,1,1,.25.14.64.2.83.41s.2.54.2.81c-.02,1.2-.23,2.35-.1,3.56s.44,2.49.93,3.66c.25.58,1.21.33.96-.27-.48-1.15-.81-2.37-.92-3.62-.05-.63-.06-1.26-.01-1.88.04-.54.16-1.09.14-1.63-.02-.41-.1-.83-.35-1.17-.32-.45-.81-.51-1.26-.79-1.11-.69-.95-2.26-.85-3.37l-.85.35c.7.78-.1,1.83-.6,2.46-.64.81-1.28,1.63-1.93,2.44-.41.51-.97,1.11-.63,1.81.3.61.99.72,1.52,1.03.84.5.91,1.55.81,2.43-.09.78-.2,1.73-.62,2.41-.54.87-1.65.68-2.53.65-1.1-.04-2.18-.16-3.27-.33-.63-.1-.9.86-.27.96h0Z"/>
      </g>
      <g>
        <path class="cls-11" d="m20.3,91.54c.7.11,1.45.18,2.06.01.36-.1.64-.25.91-.4.04-.02.08-.04.12-.07.22-.12.44-.25.63-.46.37-.41.5-1.05.46-1.66,0-.14-.03-.27-.05-.41-.04-.3-.09-.6-.12-.92-.02-.22-.03-.45-.03-.67-.01-.44-.04-.87-.12-1.17-.02-.07-.04-.13-.07-.19-.12-.26-.37-.41-.16-.77.03-.04.06-.08.1-.12.07-.07.16-.14.24-.21.25-.19.49-.39.7-.63.42-.48.66-1.06.89-1.61.28-.04.63-.13.9-.31.2-.13.35-.33.42-.52.03-.07.04-.14.03-.17.09.42.09.95.12,1.44s.14.93.41,1.2c.1.1.22.17.31.3.26.35.2.93.18,1.42-.02.38,0,.76.06,1.13.16,1.02.62,1.95,1.21,2.65"/>
        <path class="cls-15" d="m20.16,92.02c.62.1,1.25.18,1.88.1.58-.07,1.1-.32,1.6-.6,1.09-.62,1.45-1.68,1.3-2.89-.08-.65-.14-1.28-.17-1.94-.03-.54-.1-.99-.33-1.48-.04-.08-.06-.13-.05-.13.03-.08.3-.25.36-.3.23-.18.44-.38.63-.6.41-.49.67-1.06.92-1.64l-.3.23c.8-.14,1.65-.59,1.72-1.48l-.98.13c.14.77,0,1.58.31,2.31.14.33.35.47.56.74.22.29.15.69.14,1.03-.06,1.58.4,3.05,1.41,4.28.41.5,1.11-.21.71-.71-.46-.56-.79-1.22-.97-1.92-.2-.76-.08-1.49-.13-2.26-.02-.27-.06-.56-.2-.8-.16-.29-.47-.44-.6-.75-.28-.65-.13-1.49-.26-2.18-.11-.59-.94-.4-.98.13s-1.04.38-1.29.75c-.18.27-.26.62-.42.9-.14.26-.3.5-.51.72-.37.39-.97.66-1.12,1.21-.14.51.26.83.34,1.3.1.64.06,1.29.14,1.93.08.6.22,1.22.01,1.81s-.84.88-1.37,1.09c-.66.26-1.38.19-2.06.08-.63-.1-.9.87-.27.96h0Z"/>
      </g>
      <g>
        <path class="cls-11" d="m18.23,94.17c.53.08,1.15.12,1.5-.29.2-.23.25-.56.29-.87.1-.77.18-1.61-.24-2.27-.19-.3-.49-.55-.61-.88-.17-.48.06-1.03.45-1.36s.89-.49,1.38-.6c.32-.07.66-.14.9-.37.34-.33.34-.87.31-1.35.33.65,1.04,1.1,1.77,1.12.12,0,.24,0,.34.05.25.11.3.45.21.7s-.28.46-.4.69c-.26.49-.23,1.13.07,1.59s.88.74,1.43.69"/>
        <path class="cls-15" d="m18.09,94.65c1.01.14,2.09.01,2.35-1.15.22-1.01.3-2.27-.34-3.14-.29-.4-.67-.72-.36-1.23.29-.47.89-.61,1.38-.73s1.04-.28,1.33-.77c.26-.43.27-.95.25-1.43l-.93.25c.33.59.86,1.04,1.5,1.25.15.05.31.08.47.1.08,0,.15.01.23.02.2.02.08-.04.09,0,.02.13-.13.29-.2.39-.11.17-.21.33-.28.51-.55,1.39.57,2.88,2.04,2.81.64-.03.64-1.03,0-1-.6.03-1.14-.35-1.18-.98s.61-1.05.62-1.7c.02-.7-.47-.99-1.09-1.04-.58-.05-1.06-.36-1.34-.87-.23-.43-.96-.25-.93.25.02.34.08.85-.26,1.06-.37.23-.91.23-1.32.39-.85.33-1.62,1.08-1.5,2.06.05.47.34.79.61,1.15.3.39.36.83.35,1.31-.01.38.01.99-.2,1.32s-.71.24-1.03.2c-.27-.04-.53.07-.62.35-.07.23.08.58.35.62h0Z"/>
      </g>
    </g>
  </g>
</svg>